<?xml version="1.0" encoding="utf-8"?>
<!-- Generator: Adobe Illustrator 19.2.1, SVG Export Plug-In . SVG Version: 6.00 Build 0)  -->
<svg version="1.1" id="Layer_1" xmlns="http://www.w3.org/2000/svg" xmlns:xlink="http://www.w3.org/1999/xlink" x="0px" y="0px"
	 viewBox="0 0 228 216.5" style="enable-background:new 0 0 228 216.5;" xml:space="preserve">
<style type="text/css">
	.st0{fill:#DEDEDD;}
	.st1{fill-rule:evenodd;clip-rule:evenodd;fill:#BBBBBB;}
	.st2{fill-rule:evenodd;clip-rule:evenodd;fill:#DEDEDD;}
	.st3{fill-rule:evenodd;clip-rule:evenodd;fill:#E22A26;}
	.st4{fill-rule:evenodd;clip-rule:evenodd;fill:#D9DADA;}
	.st5{fill:#CD2027;}
	.st6{fill-rule:evenodd;clip-rule:evenodd;fill:#CD2027;}
	.st7{fill:#9A9A9A;}
	.st8{fill:#BBBBBB;}
	.st9{fill:#E22A26;}
</style>
<path class="st0" d="M43.6,188.3l24.8-24.8c-12.1-11.8-19.7-28.3-19.7-46.6c0-35.9,29.1-65,65-65s65,29.1,65,65
	c0,18.3-7.5,34.7-19.6,46.5l24.8,24.8c18.4-18.1,29.9-43.4,29.9-71.3c0-55.2-44.8-100-100-100s-100,44.8-100,100
	C13.7,144.9,25.1,170.2,43.6,188.3z"/>
<g id="Shape_133_copy_4_">
	<g>
		<polygon class="st1" points="21.2,78.7 107,119.8 111.7,109.5 		"/>
	</g>
</g>
<g id="Rectangle_68_copy_2_10_">
	<g>
		<rect x="84.7" y="144.5" class="st2" width="58" height="2"/>
	</g>
</g>
<g id="Rectangle_68_copy_2_8_">
	<g>
		<rect x="84.7" y="144.5" class="st3" width="29" height="2"/>
	</g>
</g>
<g id="Ellipse_28_copy_2_10_">
	<g>
		<circle class="st4" cx="113.6" cy="117" r="8.5"/>
	</g>
</g>
<g id="Ellipse_28_copy_2_8_">
	<g>
		<path class="st5" d="M113.6,111.5c3,0,5.5,2.5,5.5,5.5s-2.5,5.5-5.5,5.5s-5.5-2.5-5.5-5.5S110.6,111.5,113.6,111.5 M113.6,110.5
			c-3.6,0-6.5,2.9-6.5,6.5c0,3.6,2.9,6.5,6.5,6.5s6.5-2.9,6.5-6.5C120.1,113.4,117.2,110.5,113.6,110.5L113.6,110.5z"/>
	</g>
</g>
<g id="Shape_131_copy_4_">
	<g>
		<polygon class="st5" points="114.1,111.5 113.1,111.5 113.1,119.5 114.1,119.5 114.1,111.5 		"/>
	</g>
</g>
<g id="Shape_132_copy_4_">
	<g>
		<polygon class="st6" points="116.1,116.9 115.2,116.5 113.7,118.3 111.5,116.1 110.8,116.8 113.8,119.8 114.5,119.1 114.4,119 		
			"/>
	</g>
</g>
<g>
	<path class="st7" d="M1.8,120.5v-7.3l-1.5,0.9L0,113.4l1.9-1.3h0.9v8.4H1.8z"/>
</g>
<g>
	<path class="st7" d="M31.1,40.5v-0.9l1.5-1.8c1.3-1.5,1.8-2.5,1.8-3.5c0-0.9-0.4-1.5-1.4-1.5c-0.4,0-0.9,0.1-1.5,0.4l-0.2-0.9
		c0.6-0.3,1.3-0.4,2-0.4c1.6,0,2.3,0.8,2.3,2.2c0,1.3-0.8,2.5-2.1,4l-1.2,1.4H36v0.9H31.1z"/>
</g>
<g>
	<path class="st7" d="M111.1,7.7c0.5,0.1,1.1,0.1,1.6,0.1c1.3,0,1.9-0.6,1.9-1.6c0-1.2-1-1.6-2-1.6h-0.6V3.8h0.5
		c1.2,0,1.9-0.7,1.9-1.5c0-0.8-0.4-1.3-1.3-1.3c-0.5,0-1,0.1-1.6,0.4l-0.2-0.8c0.6-0.2,1.2-0.4,1.9-0.4c1.5,0,2.3,0.8,2.3,2.1
		c0,0.9-0.6,1.8-1.6,2v0c1.1,0.1,1.8,0.9,1.8,2c0,1.5-1.1,2.5-3,2.5c-0.4,0-1,0-1.6-0.2V7.7z"/>
</g>
<g>
	<path class="st7" d="M191.5,40.5v-2H188v-0.9l3.1-5.6h1.5v5.5h1.2v0.9h-1.2v2H191.5z M191.5,33.1L191.5,33.1l-2.6,4.6h2.6V33.1z"/>
</g>
<g>
	<path class="st7" d="M223.4,119.7c0.4,0,0.9,0.1,1.6,0.1c1.2,0,1.9-0.6,1.9-1.9c0-1.1-0.6-1.6-1.8-1.6c-0.5,0-0.9,0.1-1.3,0.1
		l0.1-4.2h3.7v0.9h-2.7l-0.1,2.4c0.2,0,0.5,0,0.8,0c1.7,0,2.5,1,2.5,2.4c0,1.8-1.2,2.8-3,2.8c-0.4,0-1.1-0.1-1.6-0.2V119.7z"/>
</g>
<rect x="112.8" y="17" class="st8" width="1.8" height="35"/>
<rect x="112.8" y="17" class="st8" width="1.8" height="35"/>
<rect x="54.4" y="41.1" transform="matrix(0.7071 -0.7071 0.7071 0.7071 -25.252 56.2894)" class="st8" width="1.8" height="35"/>
<rect x="30.3" y="99.5" transform="matrix(-8.053756e-05 -1 1 -8.053756e-05 -85.8016 148.1287)" class="st8" width="1.8" height="35"/>
<rect x="54.4" y="157.8" transform="matrix(-0.7072 -0.707 0.707 -0.7072 -29.4837 338.379)" class="st8" width="1.8" height="35"/>
<rect x="195.3" y="99.4" transform="matrix(2.416127e-04 1 -1 2.416127e-04 313.0349 -79.2402)" class="st8" width="1.8" height="35"/>
<rect x="171.1" y="41.1" transform="matrix(0.7073 0.7069 -0.7069 0.7073 91.7632 -104.4122)" class="st8" width="1.8" height="35"/>
<path class="st3" d="M43.6,188.3l24.7-24.4c0,0-20-17.5-19.7-46h-35C13.7,117.8,11.5,156.8,43.6,188.3z"/>
<g>
	<path class="st9" d="M96.3,188.3v-2.4l4.3-5.1c3.7-4.4,5-7.1,5-10c0-2.6-1.2-4.1-3.9-4.1c-1.2,0-2.7,0.3-4.4,1l-0.5-2.4
		c1.8-0.7,3.6-1.1,5.6-1.1c4.4,0,6.6,2.4,6.6,6.3c0,3.7-2.2,7.2-5.8,11.4l-3.3,3.9h10.2v2.5H96.3z"/>
	<path class="st9" d="M112.8,176.6c0-7.8,2.8-12.4,8.4-12.4c6.3,0,8.1,5.1,8.1,12.1c0,7.7-2.8,12.4-8.4,12.4
		C114.8,188.7,112.8,183.7,112.8,176.6z M126.1,176.5c0-6.5-1.4-9.9-5.1-9.9c-3.5,0-5,3.4-5,9.7c0,6.5,1.4,9.9,5.1,9.9
		C124.6,186.2,126.1,182.8,126.1,176.5z"/>
	<path class="st9" d="M98.8,213.3c-0.1-4.5-0.3-8.9-0.7-13.1h0l-3.9,13.1h-2l-3.9-13.1h0c-0.4,4.1-0.6,8.6-0.7,13.1h-1.9
		c0-5,0.4-10.3,1.1-15.4h2.9l3.6,12.3h0l3.6-12.3h2.9c0.6,5.2,0.9,10.2,1,15.4H98.8z"/>
	<path class="st9" d="M105.1,204c0.6-1.2,1.9-2.1,3.5-2.1c2.7,0,4.3,2.2,4.3,5.6c0,3.7-1.8,6.1-4.9,6.1c-2.8,0-4.6-1.9-4.6-6.8
		c0-4.5,0.5-6.6,1.9-8c0.8-0.8,2-1.3,3.6-1.6l2.3-0.4c0.5-0.1,0.9-0.2,1.1-0.3v1.8c-0.2,0.1-0.5,0.2-1,0.3l-2.3,0.4
		c-1.4,0.2-2.2,0.6-2.8,1.1C105.6,200.7,105.3,202,105.1,204L105.1,204z M110.9,207.8c0-2.4-0.8-4.2-2.7-4.2c-1.7,0-2.8,1.5-2.8,4
		c0,1.7,0.4,4.5,2.8,4.5C109.9,212,110.9,210.4,110.9,207.8z"/>
	<path class="st9" d="M113.9,216.1l6.7-20.4l1.8,0.5l-6.7,20.4L113.9,216.1z"/>
	<path class="st9" d="M124.3,213.3v-15.4h7v1.7h-5v13.7H124.3z"/>
	<path class="st9" d="M133.5,204c0.6-1.2,1.9-2.1,3.5-2.1c2.7,0,4.3,2.2,4.3,5.6c0,3.7-1.8,6.1-4.9,6.1c-2.8,0-4.6-1.9-4.6-6.8
		c0-4.5,0.5-6.6,1.9-8c0.8-0.8,2-1.3,3.6-1.6l2.3-0.4c0.5-0.1,0.9-0.2,1.1-0.3v1.8c-0.2,0.1-0.5,0.2-1,0.3l-2.3,0.4
		c-1.4,0.2-2.2,0.6-2.8,1.1C134,200.7,133.7,202,133.5,204L133.5,204z M139.3,207.8c0-2.4-0.8-4.2-2.7-4.2c-1.7,0-2.8,1.5-2.8,4
		c0,1.7,0.4,4.5,2.8,4.5C138.3,212,139.3,210.4,139.3,207.8z"/>
</g>
</svg>
