<svg id="Layer_1" data-name="Layer 1" xmlns="http://www.w3.org/2000/svg" viewBox="0 0 612 792"><defs><style>.cls-1{fill:#e61127;}.cls-2,.cls-3{fill:none;}.cls-2{stroke:#231f20;stroke-linecap:round;stroke-linejoin:round;}.cls-3{stroke:#2b2a2a;stroke-miterlimit:10;}.cls-4{fill:#2b2a2a;}.cls-5{fill:#231f20;}</style></defs><title>Icons</title><path class="cls-1" d="M356.88,397.66c-3,0-30.33-.13-30.95-0.13a4.23,4.23,0,0,1-2.8-1.06,3.73,3.73,0,0,1-1.06-2.8v-56.3a3.86,3.86,0,0,1,4-4h31a5,5,0,0,1,3.34,1.26,4.44,4.44,0,0,1,1.26,3.33v54.89a5,5,0,0,1-1.22,3.43A4.66,4.66,0,0,1,356.88,397.66Zm-30.95-1.59c0.28,0,27.93.13,30.95,0.13a3.28,3.28,0,0,0,2.48-.88,3.61,3.61,0,0,0,.83-2.4V338a3.06,3.06,0,0,0-.81-2.28,3.55,3.55,0,0,0-2.31-.86h-31a2.43,2.43,0,0,0-2.52,2.52v56.29a2.34,2.34,0,0,0,.61,1.74,2.69,2.69,0,0,0,1.77.66h0Z"/><rect class="cls-1" x="341.37" y="366.13" width="1" height="38.13" transform="translate(-43.76 726.58) rotate(-89.93)"/><path class="cls-1" d="M360.93,340.95H322.8a0.73,0.73,0,1,1,0-1.46h38.13A0.73,0.73,0,1,1,360.93,340.95Z"/><path class="cls-1" d="M344.54,338.11h-5.37a0.73,0.73,0,1,1,0-1.46h5.38A0.73,0.73,0,1,1,344.54,338.11Z"/><path class="cls-1" d="M457.24,328.19h1.46c0-.32,0-0.65,0-1A60.32,60.32,0,0,0,441,284.48v2.11a58.83,58.83,0,0,1,16.26,40.63C457.26,327.55,457.24,327.87,457.24,328.19Z"/><path class="cls-1" d="M429.32,301.95h-61v-45h61v45Zm-59.56-1.46h58.1V258.38h-58.1v42.11Z"/><path class="cls-1" d="M434.58,306.68H362.64V256.47h0a3.45,3.45,0,0,1,.87-2.43,5.06,5.06,0,0,1,3.93-1.39l63.4-.21a4.1,4.1,0,0,1,2.69,1,3.7,3.7,0,0,1,1,2.77v50.43Zm-70.48-.73h0Zm0-.73h69v-49a2.31,2.31,0,0,0-.6-1.72,2.57,2.57,0,0,0-1.66-.63l-63.42.21a3.72,3.72,0,0,0-2.84.91,2,2,0,0,0-.5,1.38v48.82Z"/><path class="cls-1" d="M357.88,322.19c-2.4,0-4.06-.57-4.94-1.7a4.1,4.1,0,0,1-.45-3.62l0-.13c0-.28,0-0.53,10.33-11.29a0.73,0.73,0,1,1,1.05,1c-3.54,3.69-9.25,9.7-10,10.64l0,0.14a2.77,2.77,0,0,0,.2,2.36c0.57,0.74,1.88,1.14,3.78,1.14h81.43c0.1,0,4.1-.48,4.15-4.08-0.43-1-5.51-5.86-10.24-10a0.73,0.73,0,0,1,1-1.1c7.12,6.24,10.73,10,10.73,11,0,4-3.62,5.42-5.54,5.61h-81.5Zm85.6-5.51h0Z"/><path class="cls-1" d="M436.2,317.73h-75a0.73,0.73,0,1,1,0-1.46h75A0.73,0.73,0,1,1,436.2,317.73Z"/><circle class="cls-1" cx="341.85" cy="391.14" r="2.05"/><circle class="cls-1" cx="458.92" cy="393.25" r="2.05"/><path class="cls-1" d="M412,278.23c-4.16-4.16-8.65-6.27-13.34-6.27h-0.1c-8,0-14.13,6.19-14.19,6.25l-2.86-2.79c0.29-.3,7.33-7.4,17-7.46h0.13c5.79,0,11.23,2.5,16.17,7.44Z"/><path class="cls-1" d="M389.46,283.37l-2.81-2.84c4-4,14.12-9.15,23.27,0l-2.83,2.83C398.42,274.69,389.82,283,389.46,283.37Z"/><path class="cls-1" d="M339.18,326.29a58.86,58.86,0,0,1,17.26-40.77v-2a60.33,60.33,0,0,0-18.72,42.79h1.46Z"/><path class="cls-1" d="M398.21,386.28a58.68,58.68,0,0,1-30-8.21v1.68a60.33,60.33,0,0,0,59.18.46v-1.68A58.67,58.67,0,0,1,398.21,386.28Z"/><path class="cls-1" d="M402.14,288.53a5.22,5.22,0,0,0-3.78-1.86,5.4,5.4,0,0,0-3.4,1.74l-3.05-2.58a9.27,9.27,0,0,1,6.25-3.15,9,9,0,0,1,6.81,3Z"/><path class="cls-1" d="M398.42,292.38l-2.29-1.94a3.23,3.23,0,0,1,2.35-1.16h0a2.89,2.89,0,0,1,2.27,1.16l-2.21,1.83h0A0.56,0.56,0,0,0,398.42,292.38Zm-0.09-.14h0Z"/><path class="cls-1" d="M470,361.63c-3.34-3.34-6.94-5-10.71-5h-0.05c-6.43,0-11.36,5-11.41,5l-2.15-2.1c0.23-.24,5.82-5.87,13.51-5.92h0.1c4.59,0,8.91,2,12.83,5.91Z"/><path class="cls-1" d="M451.81,365.72l-2.11-2.13c3.2-3.17,11.18-7.25,18.43,0L466,365.71C459,358.73,452.1,365.43,451.81,365.72Z"/><path class="cls-1" d="M462.06,369.83a4.31,4.31,0,0,0-3.08-1.51,4.4,4.4,0,0,0-2.78,1.42l-2.29-1.94a7.43,7.43,0,0,1,4.92-2.48,7.1,7.1,0,0,1,5.36,2.38Z"/><path class="cls-1" d="M459.07,373l-1.89-1.64a2.68,2.68,0,0,1,1.93-.93,2.4,2.4,0,0,1,1.86.93l-1.84,1.56h0Zm-0.08-.1h0Z"/><path class="cls-1" d="M351.33,362.91c-2.87-2.87-6-4.36-9.22-4.3-5.52,0-9.69,4.24-9.73,4.29l-1.79-1.75c0.2-.2,5-5,11.5-5,3.89,0,7.64,1.67,11,5Z"/><path class="cls-1" d="M335.82,366.4l-1.76-1.78c2.72-2.7,9.5-6.16,15.67,0L348,366.39C342,360.42,336.07,366.15,335.82,366.4Z"/><path class="cls-1" d="M344.6,369.91a3.69,3.69,0,0,0-2.67-1.29,3.76,3.76,0,0,0-2.37,1.21l-1.91-1.61a6.31,6.31,0,0,1,4.17-2.1,6,6,0,0,1,4.55,2Z"/><path class="cls-1" d="M342,372l-1.53-1.29a2.18,2.18,0,0,1,1.58-.78,2,2,0,0,1,1.53.78L342,372h0Zm0-.1h0Z"/><path class="cls-1" d="M480.93,398.61H436.25c-3.14,0-3.28-1-3.28-4.68V335.39a3,3,0,0,1,.74-2.07,3.12,3.12,0,0,1,2.38-.89H481.8a3.1,3.1,0,0,1,2,.79,2.36,2.36,0,0,1,.66,1.74c0,1.77,0,58.39,0,58.95C484.45,396.18,483.52,398.61,480.93,398.61Zm-44.82-65.19a2.17,2.17,0,0,0-1.65.57,2,2,0,0,0-.48,1.36v58.58c0,3.68.17,3.68,2.28,3.68h44.67c2.34,0,2.52-2.84,2.52-3.71,0-.56,0-57.18,0-59a1.38,1.38,0,0,0-.37-1,2.1,2.1,0,0,0-1.3-.5H436.11Z"/><path class="cls-1" d="M478.16,387.52H439.59a2,2,0,0,1-1.55-.6,2.16,2.16,0,0,1-.53-1.52V338.68a1.62,1.62,0,0,1,.54-1.31,1.92,1.92,0,0,1,1.47-.34H478a2.28,2.28,0,0,1,1.84.72,2.13,2.13,0,0,1,.43,1.64v46A2,2,0,0,1,478.16,387.52Zm-39-49.52a0.79,0.79,0,0,0-.5.13,0.68,0.68,0,0,0-.18.54v46.77a1.19,1.19,0,0,0,.26.8,1.08,1.08,0,0,0,.82.28h38.56a1.05,1.05,0,0,0,1.1-1.1V339.29a1.24,1.24,0,0,0-.2-0.91A1.36,1.36,0,0,0,478,338H439.44Z"/><path class="cls-1" d="M377.78,353.2l9.42-13.77h5.4V353h3.09v3.9H392.6V361h-4.74v-4.17H377.78V353.2Zm10.08-.24v-7.83L382.49,353h5.37Z"/><path class="cls-1" d="M410.09,357.37v-4.44h-3.54V349.3h8.1v10.29a15.34,15.34,0,0,1-7.23,1.8c-6.27,0-10.23-3.75-10.23-10.89,0-7.44,4.29-11.43,10.71-11.43a11.68,11.68,0,0,1,6.75,1.95l-1.14,4.17a9.24,9.24,0,0,0-5.55-2c-3.45,0-5.88,2.07-5.88,7.32s2.37,7.14,5.91,7.14A9.37,9.37,0,0,0,410.09,357.37Z"/><path class="cls-1" d="M144,363.65a4.4,4.4,0,0,1-2.86-1.15,3.69,3.69,0,0,1-1-2.72v-76.6a2.77,2.77,0,0,1,2.82-2.82H259.34a3.5,3.5,0,0,1,3.19,3.57v76.32a3.45,3.45,0,0,1-.84,2.41,3.32,3.32,0,0,1-2.55,1H144Zm115.28-81.83H142.91a1.31,1.31,0,0,0-1.36,1.38v76.58a2.33,2.33,0,0,0,2.43,2.41H259.14a1.94,1.94,0,0,0,1.47-.51,2.07,2.07,0,0,0,.46-1.38V283.94A2.05,2.05,0,0,0,259.25,281.82Z"/><polygon class="cls-1" points="218.83 380.55 184.76 380.55 190.26 374.25 190.26 363.16 191.72 363.16 191.72 374.8 187.97 379.09 215.61 379.09 211.89 374.82 211.89 363.65 211.83 363.65 211.83 362.19 213.35 362.19 213.35 374.27 218.83 380.55"/><path class="cls-1" d="M256.73,347.21H145.84v-0.73c-0.31-59.91-.08-60.14.21-60.44s0.52-.52,110-0.21h0.73v61.37Zm-109.44-1.46h108V287.29c-35.66-.1-101.13-0.23-108,0C147.07,292.38,147.21,330,147.29,345.75Z"/><path class="cls-1" d="M218.64,341H184.76V312.9h-2.83v-11.1h39.74v11.15h-3V341Zm-32.42-1.46h31v-28.1h3v-8.23H183.38v8.18h2.83v28.15Z"/><rect class="cls-1" x="196.43" y="311.71" width="1.46" height="28.35"/><rect class="cls-1" x="206.59" y="311.71" width="1.46" height="28.35"/><rect class="cls-1" x="185.49" y="311.44" width="32.42" height="1.46"/><rect class="cls-1" x="194.89" y="302.52" width="1.46" height="9.69"/><path class="cls-1" d="M210,312.22h-1.46c0-3.67,0-9.27,0-9.63l0.73-.06,0.52-.52C210.05,302.25,210.05,302.25,210,312.22Z"/><polygon class="cls-1" points="196.93 303.05 187.78 294.22 193.8 294.22 193.8 287.15 202.93 295.95 201.91 297 195.26 290.59 195.26 295.68 191.4 295.68 197.94 302 196.93 303.05"/><polygon class="cls-1" points="208.47 302.96 207.3 302.09 212.04 295.72 207.24 297.04 206.07 292.93 199.67 302.92 198.44 302.13 206.6 289.41 208.25 295.25 215.75 293.19 208.47 302.96"/><path class="cls-1" d="M159.11,269.18a71.18,71.18,0,0,1,86.15,0h1.62a72.13,72.13,0,0,0-89.38,0h1.62Z"/><path class="cls-1" d="M245,383.07a71.2,71.2,0,0,1-85.68,0h-1.62a72.13,72.13,0,0,0,88.91,0H245Z"/><path class="cls-1" d="M213.82,515.52H146.69c-4.2,0-6.6-2.07-6.6-5.69V467.57a4.2,4.2,0,0,1,1.19-2.9c1.36-1.46,3.67-2.2,6.88-2.2h66.7a5.7,5.7,0,0,1,3.76,1.47,4.94,4.94,0,0,1,1.38,3.67v41.73a6.87,6.87,0,0,1-1.76,4.52A5.94,5.94,0,0,1,213.82,515.52Zm1.05-51.59H148.16c-2.75,0-4.76.6-5.82,1.73a2.76,2.76,0,0,0-.8,1.85v42.31c0,3.49,2.8,4.23,5.14,4.23h67.13a4.54,4.54,0,0,0,3.38-1.22,5.4,5.4,0,0,0,1.34-3.48V467.61a3.54,3.54,0,0,0-.94-2.62A4.31,4.31,0,0,0,214.87,463.93Z"/><rect class="cls-1" x="140.82" y="475.95" width="78.45" height="1.46"/><path class="cls-1" d="M202.52,506.84a8,8,0,0,1-5.8-2.49,8,8,0,0,1-5.8,2.49,8.1,8.1,0,0,1,0-16.21,8,8,0,0,1,5.8,2.49,8,8,0,0,1,5.8-2.49A8.1,8.1,0,0,1,202.52,506.84Zm-5.8-4.8,0.58,0.74a6.64,6.64,0,1,0,0-8.1l-0.58.74-0.58-.74a6.64,6.64,0,1,0,0,8.1Z"/><path class="cls-1" d="M467.85,523.51H443.5v-9.25c-0.31-1.32-3.52-14.72-3.63-15.3a19.94,19.94,0,0,1,0-3V495.7l0.21-.2a19.94,19.94,0,0,0,5.36-10.84c0.09-.79.13-2.31,0.16-4.07,0.16-8,.4-20.08,5.86-20.08,3.9,0,6.14,2.73,6.14,7.48,0,0.51,0,1.63,0,3.13s0,3.32-.07,5.32c3.47,0,14.15.07,14.66,0.13,0.71,0.09,3.32,2.38,4.87,5.15a9.35,9.35,0,0,1,.65,8.7c-2.87,6.28-9.24,24.36-9.81,26v7.09ZM445,522h21.43l0-6c0.07-.2,6.88-19.63,9.9-26.24,2.67-5.84-3.51-11.22-4.46-11.8-1,0-8.84-.09-14.4-0.12,0,1.89,0,3.89,0,5.83a56.14,56.14,0,0,0,.13,5.93c0.31,1,.48,1.61,2.32,3.12L459,493.91c-2.08-1.71-2.4-2.53-2.79-3.84-0.06-.21-0.18-0.61-0.19-6.34,0-4.58.07-9.43,0.12-12.64,0-1.5,0-2.6,0-3.11,0-2.75-.81-6-4.68-6-4,0-4.28,12.59-4.4,18.65,0,1.87-.07,3.35-0.17,4.21a21.08,21.08,0,0,1-5.59,11.51,17.31,17.31,0,0,0,0,2.33c0.09,0.45,2.42,10.22,3.64,15.33l0,0.17V522Z"/><rect class="cls-1" x="456.71" y="483" width="7.71" height="1.46"/><path class="cls-1" d="M445.07,484.5c-2.3,0-7.06-.23-9-2.05a2.62,2.62,0,0,1-.87-1.94c0-3.48,3.88-4.54,5.93-4.62h5.33v1.46H441.2c-0.16,0-4.5.21-4.5,3.16a1.18,1.18,0,0,0,.42.89c1.66,1.59,7.13,1.71,9.09,1.63l0.06,1.46C446.11,484.48,445.68,484.5,445.07,484.5Z"/><path class="cls-1" d="M443,491.42c-2.47,0-7.63-.23-9.55-2.08a2.46,2.46,0,0,1-.82-1.82c0-4.25,6-4.5,6.25-4.51h5.65v1.46h-5.62s-4.81.21-4.81,3a1,1,0,0,0,.37.77c1.68,1.61,7.61,1.74,9.76,1.65l0.06,1.46C444.08,491.4,443.62,491.42,443,491.42Z"/><path class="cls-1" d="M440.45,496.27c-1.68,0-5.24-.17-6.62-1.5a2,2,0,0,1-.65-1.46c0-2.54,2.91-3.32,4.45-3.37h3.83v1.46h-3.8s-3,.14-3,1.91a0.53,0.53,0,0,0,.2.4c1,0.94,4.44,1.16,6.41,1.07l0.06,1.46Z"/><path class="cls-1" d="M469.28,477.35h-1.46V441.7H444.52v35h-1.46V441a0.73,0.73,0,0,1,.73-0.73h24.77a0.73,0.73,0,0,1,.73.73v36.39Z"/><rect class="cls-1" x="461.98" y="440.97" width="1.46" height="35.65"/><path class="cls-1" d="M334,532.49H278.34a0.73,0.73,0,0,1-.73-0.73v-9.49a0.73,0.73,0,0,1,.41-0.66l19.72-9.54v-4.86c-4.62-3.53-7.47-10-7.47-16.87,0-.89.18-2.51,0.29-3.4s0.21-1.58.25-1.8c1.81-8.5,7.88-14.43,14.76-14.43,8.43,0,15.3,8.81,15.3,19.63,0,6.58-2.53,12.65-6.79,16.3v5.83l20.26,9.34a0.73,0.73,0,0,1,.42.66v9.28A0.73,0.73,0,0,1,334,532.49ZM279.07,531h54.21V523L313,513.62a0.73,0.73,0,0,1-.42-0.66v-6.64a0.73,0.73,0,0,1,.27-0.56c4.09-3.36,6.53-9.11,6.53-15.4,0-10-6.21-18.17-13.84-18.17-6.18,0-11.66,5.46-13.33,13.28,0,0.13-.12.79-0.23,1.67-0.18,1.46-.28,2.63-0.28,3.22,0,6.61,2.75,12.7,7.17,15.91a0.73,0.73,0,0,1,.3.59v5.68a0.73,0.73,0,0,1-.41.66l-19.72,9.54V531Z"/><path class="cls-1" d="M317.65,488.44c-4.79,0-8.42-3.54-9.9-5.26a10.49,10.49,0,0,1-8.84,4.94c-6.43.2-7.84-1.1-8.12-1.5l0.6-.42,0.56-.47s1.16,1.09,6.92.93a9.11,9.11,0,0,0,8.1-5.08,0.73,0.73,0,0,1,.59-0.44,0.71,0.71,0,0,1,.68.3c0,0.07,5,6.95,11.54,5.27l0.37,1.41A9.91,9.91,0,0,1,317.65,488.44Z"/><polygon class="cls-1" points="335.53 497.33 335.53 480.8 326.91 480.8 326.91 479.33 336.99 479.33 336.99 493.8 351.69 479.1 362.62 479.1 362.62 446.96 307.52 446.96 307.52 459.24 306.06 459.24 306.06 445.5 364.08 445.5 364.08 480.56 352.3 480.56 335.53 497.33"/><circle class="cls-1" cx="327.09" cy="464.98" r="2.31"/><circle class="cls-1" cx="337.97" cy="464.77" r="2.31"/><circle class="cls-1" cx="348.86" cy="464.98" r="2.31"/><path class="cls-2" d="M253.27,191.16a6.53,6.53,0,0,1-1.87-.29h0l-0.08,0H251.2l-0.08,0H251l-0.06,0-0.11,0h0l-0.14-.06a6.57,6.57,0,0,1-3.35-8.65l0.06-.13,0,0,0-.09,0,0,0.07-.13,0,0,0.05-.09,0-.05,0-.08,0-.05h0l0.06-.1h0l0-.06,0-.07,0-.06,0-.06,0-.06,0.07-.1h0l0.06-.07,0,0,0.06-.07h0l0.08-.09,0,0,0,0,0.06-.06,0,0,0.06-.07h0l0.13-.14,0,0,0.07-.06,0,0,0.24-.22,0,0,0.26-.21h0l0.07-.05,0,0,0.35-.24,0,0,0.08-.05L250,179l0.08,0,0,0,0.08,0h0l0.08,0,0.1-.05,0.08,0,0,0,0.08,0,0,0,0.08,0,0.11,0h0l0.07,0,0.06,0,0.07,0h0l0.15-.06,0.05,0,0.06,0,0.07,0,0.07,0h0l0.11,0,0.08,0h0l0.08,0h0l0.08,0,0.11,0,0.1,0h0l0.1,0h0l0.17,0h0.28l0.2,0h0.37a6.56,6.56,0,0,1,6.07,9.21h0a6.57,6.57,0,0,1-6.07,3.91h0Z"/><path class="cls-2" d="M253.27,172.53h-2.42l0.35,1.65h-0.54l-0.05,0h-0.05l-0.05,0h-0.05l-0.05,0-0.05,0-0.05,0-0.05,0-0.05,0-0.05,0-0.05,0-0.05,0-0.05,0-0.05,0-0.05,0-0.05,0-0.05,0-0.05,0-0.05,0h0l-0.05,0-0.05,0h0l-0.05,0-0.05,0-0.05,0h0l-0.05,0-0.05,0-0.05,0h0l-0.05,0h0l-0.05,0h0l-0.05,0h0l0,0h0l-0.05,0h0l0,0h0l0,0h0l0,0h0l0,0h0l0,0h0l0,0h0l0,0h0l0,0h0l0,0h0l0,0h0l-0.15.08h0l-0.43.25L247,174.3A12,12,0,0,0,244,177l1.31,1.06a10.28,10.28,0,0,0-1.45,2.34c-0.11.24-.19,0.48-0.28,0.73l-1.59-.56,0,0.06,0,0.06,0,0.06,0,0.06,0,0.06,0,0.06,0,0.06,0,0.06,0,0.06,0,0.06,0,0.06,0,0.06,0,0.06,0,0.06,0,0.06,0,0.06,0,0.06,0,0.06,0,0.06,0,0.06,0,0.06h0v0.31h0v0.19h0v0.06h0v0.13h0v0.06h0v0.06h0v0.06h0v0.06h0v0.06h0v0.06h0V183h0v0.06h0l0,0.13h0v0.06h0c0,0.06,0,.13,0,0.19h0q-0.06.58-.06,1.16h1.68a10.44,10.44,0,0,0,.6,3.47l-1.59.56a12.09,12.09,0,0,0,2,3.57l1.31-1.06a10.31,10.31,0,0,0,2.65,2.32L247,194.9a12.33,12.33,0,0,0,1.41.74,12.1,12.1,0,0,0,2.38.77l0.35-1.64h2.08a10.64,10.64,0,0,0,1.44-.1l0.23,1.67a12.11,12.11,0,0,0,3.9-1.22l-0.77-1.5a10.34,10.34,0,0,0,2.82-2.12l1.23,1.16a12.13,12.13,0,0,0,2.86-5.1l-1.63-.44a10.25,10.25,0,0,0,.35-3.5l1.67-.13a12.09,12.09,0,0,0-1-4l-1.54.68a10.36,10.36,0,0,0-1.93-2.95l1.22-1.15a12,12,0,0,0-3.28-2.46l-0.77,1.5c-0.18-.09-0.35-0.19-0.54-0.27a10.2,10.2,0,0,0-2.82-.79l0.22-1.67a12,12,0,0,0-1.67-.11h0Z"/><path class="cls-2" d="M205.64,174.5l20.3,0.06a2.73,2.73,0,0,1,2.72,2.73l0,12.2a2.73,2.73,0,0,1-2.73,2.72l-11.59,0-6.65,6.36,0-6.38h-2.08a2.73,2.73,0,0,1-2.72-2.73l0-12.2a2.73,2.73,0,0,1,2.73-2.72h0Z"/><path class="cls-3" d="M301.2,188.85v6.38a0.53,0.53,0,0,1-.53.53H279.4a1.6,1.6,0,0,1-1.6-1.6V175"/><path class="cls-3" d="M301.74,182.47h0a1.06,1.06,0,0,1,1.06,1.06v4.26a1.06,1.06,0,0,1-1.06,1.06h-7.45a1.06,1.06,0,0,1-1.06-1.06V184.6a1.06,1.06,0,0,1,1.06-1.06h6.38a0.53,0.53,0,0,0,.53-0.53v-5.85a0.53,0.53,0,0,0-.53-0.53H279.4a1.6,1.6,0,0,1-1.6-1.6h0a1.6,1.6,0,0,1,1.6-1.6h19.68a0.53,0.53,0,0,1,.53.53v2.66"/><circle class="cls-4" cx="295.89" cy="186.19" r="1.06"/><path class="cls-2" d="M316.89,182.44V196h28.58M321,196h4.08V178.6H321V196h0Zm8.16,0h4.08V184.45h-4.08V196h0Zm8.16,0h4.08V172.09H337.3V196h0Z"/><path class="cls-5" d="M376.72,196.81H359.9a2,2,0,0,1-2-2V183a1,1,0,0,1,1-1v-1a1,1,0,0,1-1-1v-3a1,1,0,0,1,.29-0.7l4-4a1,1,0,0,1,.7-0.29h13.85a2,2,0,0,1,2,2v20.78A2,2,0,0,1,376.72,196.81ZM358.91,183v11.87a1,1,0,0,0,1,1h16.82a1,1,0,0,0,1-1V174.06a1,1,0,0,0-1-1H362.87l-4,4v3h0.49a0.49,0.49,0,0,1,.49.49v2a0.49,0.49,0,0,1-.49.49h-0.49Z"/><path class="cls-5" d="M369.3,178a0.49,0.49,0,0,1-.49-0.49v-3a0.49,0.49,0,0,1,1,0v3A0.49,0.49,0,0,1,369.3,178Z"/><path class="cls-5" d="M366.33,178a0.49,0.49,0,0,1-.49-0.49v-3a0.49,0.49,0,0,1,1,0v3A0.49,0.49,0,0,1,366.33,178Z"/><path class="cls-5" d="M363.36,178a0.49,0.49,0,0,1-.49-0.49v-3a0.49,0.49,0,0,1,1,0v3A0.49,0.49,0,0,1,363.36,178Z"/><path class="cls-5" d="M372.27,178a0.49,0.49,0,0,1-.49-0.49v-3a0.49,0.49,0,1,1,1,0v3A0.49,0.49,0,0,1,372.27,178Z"/><path class="cls-5" d="M375.23,178a0.49,0.49,0,0,1-.49-0.49v-3a0.49,0.49,0,0,1,1,0v3A0.49,0.49,0,0,1,375.23,178Z"/></svg>