<?xml version="1.0" encoding="utf-8"?>
<!-- Generator: Adobe Illustrator 16.0.0, SVG Export Plug-In . SVG Version: 6.00 Build 0)  -->
<!DOCTYPE svg PUBLIC "-//W3C//DTD SVG 1.1//EN" "http://www.w3.org/Graphics/SVG/1.1/DTD/svg11.dtd">
<svg version="1.1" id="Layer_1" xmlns="http://www.w3.org/2000/svg" xmlns:xlink="http://www.w3.org/1999/xlink" x="0px" y="0px"
	 width="13.625px" height="13.625px" viewBox="0 0 13.625 13.625" enable-background="new 0 0 13.625 13.625" xml:space="preserve">
<path id="Trash_copy" d="M12.77,4.255h-0.853v8.528c0.001,0.47-0.38,0.852-0.851,0.852l0,0H2.549c-0.471,0-0.852-0.381-0.852-0.852
	V4.255h-1.7V3.402c0-0.47,0.38-0.851,0.85-0.852c0,0,0,0,0.001,0h3.408V0.844c0-0.47,0.381-0.852,0.851-0.853l0,0h3.405
	c0.47,0,0.853,0.381,0.853,0.852c0,0,0,0.001,0,0.001V2.55h3.406c0.471,0,0.852,0.382,0.852,0.852v0.853H12.77L12.77,4.255z
	 M7.66,1.697H5.959V2.55H7.66V1.697z M10.214,8.519V4.255H3.401v7.675h6.812V8.519H10.214z"/>
</svg>
