<?xml version="1.0" encoding="utf-8"?>
<!-- Generator: Adobe Illustrator 16.0.0, SVG Export Plug-In . SVG Version: 6.00 Build 0)  -->
<!DOCTYPE svg PUBLIC "-//W3C//DTD SVG 1.1//EN" "http://www.w3.org/Graphics/SVG/1.1/DTD/svg11.dtd">
<svg version="1.1" id="Layer_1" xmlns="http://www.w3.org/2000/svg" xmlns:xlink="http://www.w3.org/1999/xlink" x="0px" y="0px"
	 width="409.921px" height="277.908px" viewBox="0 0 409.921 277.908" enable-background="new 0 0 409.921 277.908"
	 xml:space="preserve">
<g>
	<path fill="#959595" d="M377.694,277.908H32.227C14.457,277.908,0,263.451,0,245.682V32.228C0,14.458,14.457,0,32.227,0h345.467
		c17.77,0,32.227,14.457,32.227,32.227v213.454C409.921,263.451,395.464,277.908,377.694,277.908 M32.227,14
		C22.177,14,14,22.176,14,32.228v213.454c0,10.05,8.177,18.227,18.227,18.227h345.467c10.05,0,18.227-8.177,18.227-18.227V32.228
		c0-10.051-8.177-18.227-18.227-18.227H32.227z"/>
	<path fill="#959595" d="M204.961,177.613c-1.349,0-2.696-0.39-3.869-1.165L6.409,47.381c-3.223-2.136-4.103-6.48-1.967-9.702
		c2.136-3.223,6.481-4.103,9.702-1.967l190.817,126.503L395.777,35.712c3.222-2.134,7.565-1.256,9.702,1.967
		c2.136,3.222,1.256,7.566-1.967,9.702L208.828,176.448C207.656,177.224,206.309,177.613,204.961,177.613"/>
</g>
</svg>
