<?xml version="1.0" encoding="utf-8"?>
<!-- Generator: Adobe Illustrator 16.0.0, SVG Export Plug-In . SVG Version: 6.00 Build 0)  -->
<!DOCTYPE svg PUBLIC "-//W3C//DTD SVG 1.1//EN" "http://www.w3.org/Graphics/SVG/1.1/DTD/svg11.dtd">
<svg version="1.1" id="Layer_1" xmlns="http://www.w3.org/2000/svg" xmlns:xlink="http://www.w3.org/1999/xlink" x="0px" y="0px"
	 width="456.662px" height="392.48px" viewBox="0 0 456.662 392.48" enable-background="new 0 0 456.662 392.48"
	 xml:space="preserve">
<g>
	<path fill="#222222" d="M334.835,392.48H28.864C12.948,392.48,0,379.532,0,363.616V141.288c0-15.916,12.948-28.864,28.864-28.864
		h266.04c3.866,0,7,3.134,7,7c0,3.866-3.134,7-7,7H28.864c-8.196,0-14.864,6.668-14.864,14.864v222.328
		c0,8.196,6.668,14.864,14.864,14.864h305.971c8.196,0,14.864-6.668,14.864-14.864v-219.75c0-3.866,3.134-7,7-7c3.865,0,7,3.134,7,7
		v219.75C363.699,379.532,350.751,392.48,334.835,392.48"/>
	<path fill="#222222" d="M181.85,281.811c-1.832,0-3.62-0.72-4.95-2.051c-1.789-1.788-2.473-4.401-1.791-6.837l15.502-55.357
		c0.324-1.158,0.941-2.213,1.791-3.063L399.563,7.342C404.229,2.676,410.534,0,416.861,0c5.742,0,11.063,2.159,14.983,6.079
		l18.736,18.737c4.249,4.249,6.396,10.028,6.043,16.273c-0.335,5.947-2.93,11.632-7.306,16.008L242.157,264.258
		c-0.851,0.851-1.904,1.467-3.063,1.791l-55.357,15.502C183.114,281.726,182.479,281.811,181.85,281.811 M203.598,223.107
		l-11.652,41.607l41.607-11.652L439.419,47.197c3.789-3.789,4.356-9.389,1.262-12.482l-18.735-18.736
		c-1.637-1.636-3.667-1.979-5.084-1.979c-2.642,0-5.338,1.181-7.398,3.241L203.598,223.107z"/>
	<path fill="#222222" d="M431.896,71.62c-1.791,0-3.583-0.684-4.95-2.05l-39.854-39.856c-2.734-2.733-2.734-7.166,0-9.899
		c2.732-2.734,7.166-2.734,9.898,0l39.856,39.855c2.733,2.734,2.733,7.166,0,9.9C435.479,70.936,433.688,71.62,431.896,71.62"/>
</g>
</svg>
