<?xml version="1.0" encoding="utf-8"?>
<!-- Generator: Adobe Illustrator 16.0.0, SVG Export Plug-In . SVG Version: 6.00 Build 0)  -->
<!DOCTYPE svg PUBLIC "-//W3C//DTD SVG 1.1//EN" "http://www.w3.org/Graphics/SVG/1.1/DTD/svg11.dtd">
<svg version="1.1" id="Layer_1" xmlns="http://www.w3.org/2000/svg" xmlns:xlink="http://www.w3.org/1999/xlink" x="0px" y="0px"
	 width="283.191px" height="448px" viewBox="0 0 283.191 448" enable-background="new 0 0 283.191 448" xml:space="preserve">
<g>
	<path fill="#222222" d="M256.189,448H27.001C12.112,448,0,435.888,0,421V27.001C0,12.112,12.112,0,27.001,0h229.188
		c14.89,0,27.001,12.112,27.001,27.001V421C283.19,435.888,271.079,448,256.189,448 M27.001,14C19.832,14,14,19.832,14,27.001V421
		c0,7.168,5.832,13,13.001,13h229.188c7.17,0,13.002-5.832,13.002-13V27.001c0-7.169-5.832-13.001-13.002-13.001H27.001z"/>
	<path fill="#222222" d="M240.347,368.389H42.633c-3.866,0-7-3.134-7-7V55.35c0-3.867,3.134-7,7-7h197.714c3.866,0,7,3.133,7,7
		v306.039C247.347,365.255,244.213,368.389,240.347,368.389 M49.633,354.389h183.714V62.35H49.633V354.389z"/>
	<path fill="#222222" d="M161.726,407.987h-37.893c-3.867,0-7-3.134-7-7s3.133-7,7-7h37.893c3.866,0,7,3.134,7,7
		S165.592,407.987,161.726,407.987"/>
</g>
</svg>
