<svg id="Layer_1" data-name="Layer 1" xmlns="http://www.w3.org/2000/svg" viewBox="0 0 79.91 53.05"><defs><style>.cls-1{fill:#e61127;}</style></defs><title>Icons</title>
<path class="cls-1" d="M73.73,53H6.61C2.41,53,0,51,0,47.36V5.1A4.2,4.2,0,0,1,1.19,2.2C2.55,0.74,4.87,0,8.08,0h66.7a5.7,5.7,0,0,1,3.76,1.47,4.94,4.94,0,0,1,1.38,3.67V46.87a6.87,6.87,0,0,1-1.76,4.52A5.94,5.94,0,0,1,73.73,53ZM74.79,1.46H8.08c-2.75,0-4.76.6-5.82,1.73A2.76,2.76,0,0,0,1.46,5V47.36c0,3.49,2.8,4.23,5.14,4.23H73.73a4.54,4.54,0,0,0,3.38-1.22,5.4,5.4,0,0,0,1.34-3.48V5.14a3.54,3.54,0,0,0-.94-2.62A4.31,4.31,0,0,0,74.79,1.46Z"/><rect class="cls-1" x="0.73" y="13.48" width="78.45" height="1.46"/><path class="cls-1" d="M62.44,44.37a8,8,0,0,1-5.8-2.49,8,8,0,0,1-5.8,2.49,8.1,8.1,0,0,1,0-16.21,8,8,0,0,1,5.8,2.49,8,8,0,0,1,5.8-2.49A8.1,8.1,0,0,1,62.44,44.37Zm-5.8-4.8,0.58,0.74a6.64,6.64,0,1,0,0-8.1L56.63,33l-0.58-.74a6.64,6.64,0,1,0,0,8.1Z"/>
</svg>