<svg id="Layer_1" data-name="Layer 1" xmlns="http://www.w3.org/2000/svg" viewBox="0 0 45.83 83.27"><defs><style>.cls-1{fill:#e61127;}</style></defs><title>Icons</title>
<path class="cls-1" d="M35.23,83.27H10.88V74c-0.31-1.32-3.52-14.72-3.63-15.3a19.94,19.94,0,0,1,0-3V55.46l0.21-.2a19.94,19.94,0,0,0,5.36-10.84c0.09-.79.13-2.31,0.16-4.07,0.16-8,.4-20.08,5.86-20.08,3.9,0,6.14,2.73,6.14,7.48,0,0.51,0,1.63,0,3.13s0,3.32-.07,5.32c3.47,0,14.15.07,14.66,0.13,0.71,0.09,3.32,2.38,4.87,5.15a9.35,9.35,0,0,1,.65,8.7c-2.87,6.28-9.24,24.36-9.81,26v7.09ZM12.34,81.81H33.77l0-6c0.07-.2,6.88-19.63,9.9-26.24,2.67-5.84-3.51-11.22-4.46-11.8-1,0-8.84-.09-14.4-0.12,0,1.89,0,3.89,0,5.83A56.14,56.14,0,0,0,25,49.43c0.31,1,.48,1.61,2.32,3.12l-0.93,1.13c-2.08-1.71-2.4-2.53-2.79-3.84-0.06-.21-0.18-0.61-0.19-6.34,0-4.58.07-9.43,0.12-12.64,0-1.5,0-2.6,0-3.11,0-2.75-.81-6-4.68-6-4,0-4.28,12.59-4.4,18.65,0,1.87-.07,3.35-0.17,4.21A21.08,21.08,0,0,1,8.68,56.11a17.31,17.31,0,0,0,0,2.33c0.09,0.45,2.42,10.22,3.64,15.33l0,0.17v7.88Z"/><rect class="cls-1" x="24.09" y="42.77" width="7.71" height="1.46"/><path class="cls-1" d="M12.46,44.26c-2.3,0-7.06-.23-9-2.05a2.62,2.62,0,0,1-.87-1.94c0-3.48,3.88-4.54,5.93-4.62H13.9v1.46H8.59c-0.16,0-4.5.21-4.5,3.16a1.18,1.18,0,0,0,.42.89c1.66,1.59,7.13,1.71,9.09,1.63l0.06,1.46C13.5,44.25,13.07,44.26,12.46,44.26Z"/><path class="cls-1" d="M10.37,51.18C7.9,51.18,2.74,51,.82,49.1A2.46,2.46,0,0,1,0,47.28c0-4.25,6-4.5,6.25-4.51h5.65v1.46H6.27s-4.81.21-4.81,3a1,1,0,0,0,.37.77c1.68,1.61,7.61,1.74,9.76,1.65l0.06,1.46C11.47,51.17,11,51.18,10.37,51.18Z"/><path class="cls-1" d="M7.84,56c-1.68,0-5.24-.17-6.62-1.5a2,2,0,0,1-.65-1.46c0-2.54,2.91-3.32,4.45-3.37H8.85v1.46H5s-3,.14-3,1.91a0.53,0.53,0,0,0,.2.4c1,0.94,4.44,1.16,6.41,1.07L8.69,56Z"/><path class="cls-1" d="M36.67,37.12H35.21V1.46H11.9v35H10.44V0.73A0.73,0.73,0,0,1,11.17,0H35.94a0.73,0.73,0,0,1,.73.73V37.12Z"/><rect class="cls-1" x="29.37" y="0.73" width="1.46" height="35.65"/>
</svg>