<svg id="Layer_1" data-name="Layer 1" xmlns="http://www.w3.org/2000/svg" viewBox="0 0 86.47 87.05"><defs><style>.cls-1{fill:#e61127;}</style></defs><title>Icons</title>
<path class="cls-1" d="M56.4,87H0.73A0.73,0.73,0,0,1,0,86.27V76.78a0.73,0.73,0,0,1,.41-0.66l19.72-9.54V61.72c-4.62-3.53-7.47-10-7.47-16.87,0-.89.18-2.51,0.29-3.4s0.21-1.58.25-1.8c1.81-8.5,7.88-14.43,14.76-14.43,8.43,0,15.3,8.81,15.3,19.63,0,6.58-2.53,12.65-6.79,16.3V67l20.26,9.34a0.73,0.73,0,0,1,.42.66v9.28A0.73,0.73,0,0,1,56.4,87ZM1.46,85.54H55.67V77.46L35.42,68.12A0.73,0.73,0,0,1,35,67.46V60.82a0.73,0.73,0,0,1,.27-0.56c4.09-3.36,6.53-9.11,6.53-15.4,0-10-6.21-18.17-13.84-18.17-6.18,0-11.66,5.46-13.33,13.28,0,0.13-.12.79-0.23,1.67-0.18,1.46-.28,2.63-0.28,3.22,0,6.61,2.75,12.7,7.17,15.91a0.73,0.73,0,0,1,.3.59V67a0.73,0.73,0,0,1-.41.66L1.46,77.24v8.3Z"/><path class="cls-1" d="M40,43c-4.79,0-8.42-3.54-9.9-5.26a10.49,10.49,0,0,1-8.84,4.94c-6.43.2-7.84-1.1-8.12-1.5l0.6-.42,0.56-.47s1.16,1.09,6.92.93a9.11,9.11,0,0,0,8.1-5.08,0.73,0.73,0,0,1,.59-0.44,0.71,0.71,0,0,1,.68.3c0,0.07,5,6.95,11.54,5.27l0.37,1.41A9.91,9.91,0,0,1,40,43Z"/><polygon class="cls-1" points="57.92 51.84 57.92 35.3 49.3 35.3 49.3 33.84 59.38 33.84 59.38 48.31 74.08 33.6 85.01 33.6 85.01 1.46 29.91 1.46 29.91 13.75 28.45 13.75 28.45 0 86.47 0 86.47 35.06 74.69 35.06 57.92 51.84"/><circle class="cls-1" cx="49.48" cy="19.48" r="2.31"/><circle class="cls-1" cx="60.36" cy="19.27" r="2.31"/><circle class="cls-1" cx="71.25" cy="19.48" r="2.31"/>
</svg>