<?xml version="1.0" encoding="utf-8"?>
<!-- Generator: Adobe Illustrator 19.0.0, SVG Export Plug-In . SVG Version: 6.00 Build 0)  -->
<svg version="1.1" id="Layer_1" xmlns="http://www.w3.org/2000/svg" xmlns:xlink="http://www.w3.org/1999/xlink" x="0px" y="0px"
	 viewBox="0 0 18.7 18.9" enable-background="new 0 0 18.7 18.9" xml:space="preserve">
<g id="Shape_1_copy_5">
	<g id="XMLID_51_">
		<path id="XMLID_52_" fill="#E62C2E" d="M18.5,5.2l-4.6-5c-0.2-0.2-0.5-0.2-0.8-0.1c-0.1,0.1-0.3,0.2-0.3,0.5l0,2.2l-4.4,0
			C8,2.8,7.6,3.2,7.6,3.7l0,4.1c0,0,0,0,0,0c0,0.5,0.4,0.9,0.8,0.9l4.4,0l0,2.3c0,0.3,0.1,0.5,0.4,0.6c0.3,0.1,0.6,0.1,0.8-0.1
			l4.6-5c0.2-0.2,0.2-0.4,0.2-0.6C18.7,5.6,18.7,5.4,18.5,5.2z M14,9.4l0-0.8l0-1.4l-1.2,0l-4,0l0-3.1l4,0H14l0-1.4l0-0.6l3.3,3.6
			L14,9.4z M10.3,10.1l-4.4,0l0-2.2c0-0.3-0.2-0.4-0.3-0.5C5.3,7.2,5,7.3,4.8,7.4l-4.6,5C0.1,12.6,0,12.9,0,13.1
			c0,0.2,0.1,0.5,0.2,0.6l4.6,5C5,18.9,5.3,19,5.6,18.9c0.2-0.1,0.4-0.3,0.4-0.6l0-2.3l4.4,0c0.4,0,0.8-0.4,0.8-0.9c0,0,0,0,0,0
			l0-4.1C11.2,10.5,10.8,10.1,10.3,10.1z M9.9,14.6l-4,0l-1.2,0l0,1.4l0,0.8l-3.3-3.6l3.3-3.6l0,0.6l0,1.4h1.2l4,0L9.9,14.6z"/>
	</g>
</g>
</svg>
