<?xml version="1.0" encoding="utf-8"?>
<!-- Generator: Adobe Illustrator 19.0.0, SVG Export Plug-In . SVG Version: 6.00 Build 0)  -->
<svg version="1.1" id="Layer_1" xmlns="http://www.w3.org/2000/svg" xmlns:xlink="http://www.w3.org/1999/xlink" x="0px" y="0px"
	 viewBox="0 0 15.9 16" enable-background="new 0 0 15.9 16" xml:space="preserve">
<g id="Shape_1_copy">
	<g id="XMLID_40_">
		<path id="XMLID_41_" fill-rule="evenodd" clip-rule="evenodd" fill="#E52620" d="M5,15.5c-0.4,0-0.7-0.3-0.7-0.7l0-6.8L0.8,8
			c0,0-0.1,0-0.2-0.2c-0.1-0.2,0-0.5,0-0.6l6.8-6.6c0.1-0.1,0.3-0.2,0.5-0.2c0.2,0,0.4,0.1,0.5,0.2l6.8,6.6c0.1,0.1,0.2,0.4,0.1,0.6
			c0,0.1-0.1,0.2-0.4,0.2l-3.7,0l0,6.8c0,0.4-0.3,0.7-0.7,0.7H5z M5.2,14.7l5.3,0l0-7.5l3.6,0L7.9,1.3L1.8,7.2l3.4,0L5.2,14.7z"/>
	</g>
	<g id="XMLID_32_">
		<path id="XMLID_33_" fill="#E62C2E" d="M7.9,0C7.6,0,7.3,0.1,7.1,0.3L0.2,6.9C0,7.1-0.1,7.6,0.1,8c0.1,0.2,0.3,0.5,0.7,0.5l3,0
			l0,6.3C3.8,15.5,4.4,16,5,16l5.5,0c0,0,0,0,0,0c0.7,0,1.2-0.5,1.2-1.2l0-6.3l3.2,0c0.4,0,0.7-0.2,0.8-0.5c0.2-0.4,0.1-0.9-0.2-1.1
			L8.8,0.3C8.6,0.1,8.2,0,7.9,0L7.9,0z M3,6.7L7.9,2l4.9,4.7l-1,0l-1.9,0l0,1.8l0,5.7l-4.3,0l0-5.7V6.7l-1.9,0L3,6.7L3,6.7z"/>
	</g>
</g>
</svg>
