<?xml version="1.0" encoding="utf-8"?>
<!-- Generator: Adobe Illustrator 19.0.0, SVG Export Plug-In . SVG Version: 6.00 Build 0)  -->
<svg version="1.1" id="Layer_1" xmlns="http://www.w3.org/2000/svg" xmlns:xlink="http://www.w3.org/1999/xlink" x="0px" y="0px"
	 viewBox="0 0 15.9 16" enable-background="new 0 0 15.9 16" xml:space="preserve">
<g id="Shape_1_copy_1_">
	<g id="XMLID_40_">
		<path id="XMLID_41_" fill-rule="evenodd" clip-rule="evenodd" fill="#E52620" d="M7.9,15.5c-0.2,0-0.4-0.1-0.5-0.2L0.6,8.7
			c-0.1-0.1-0.1-0.3,0-0.6C0.6,8,0.7,8,0.8,8l3.5,0l0-6.8c0-0.4,0.3-0.7,0.7-0.7l5.5,0c0.4,0,0.7,0.3,0.7,0.7l0,6.8l3.7,0
			c0.3,0,0.3,0.2,0.4,0.2c0.1,0.2,0,0.5-0.1,0.6l-6.8,6.6C8.3,15.4,8.1,15.5,7.9,15.5z M7.9,14.7l6.1-5.9l-3.6,0l0-7.5l-5.3,0l0,7.5
			l-3.4,0L7.9,14.7z"/>
	</g>
	<g id="XMLID_32_">
		<path id="XMLID_33_" fill="#E62C2E" d="M5,0C4.4,0,3.8,0.5,3.8,1.2l0,6.3l-3,0C0.4,7.5,0.2,7.8,0.1,8C-0.1,8.4,0,8.9,0.2,9.1
			l6.8,6.6C7.3,15.9,7.6,16,7.9,16c0.3,0,0.6-0.1,0.9-0.3l6.8-6.6c0.3-0.3,0.3-0.7,0.2-1.1c-0.1-0.3-0.4-0.5-0.8-0.5l-3.2,0l0-6.3
			c0-0.6-0.5-1.2-1.2-1.2c0,0,0,0,0,0L5,0L5,0z M5.7,9.2V7.5l0-5.7l4.3,0l0,5.7l0,1.8l1.9,0l1,0L7.9,14L3,9.2l0.8,0L5.7,9.2L5.7,9.2
			z"/>
	</g>
</g>
</svg>
