<?xml version="1.0" encoding="utf-8"?>
<!-- Generator: Adobe Illustrator 19.0.0, SVG Export Plug-In . SVG Version: 6.00 Build 0)  -->
<svg version="1.1" id="icons" xmlns="http://www.w3.org/2000/svg" xmlns:xlink="http://www.w3.org/1999/xlink" x="0px" y="0px"
	 viewBox="0 0 52.5 57.4" enable-background="new 0 0 52.5 57.4" xml:space="preserve">
<g>
	<g>
		<path fill="#424242" d="M50.3,48.7c-1-3.4-9.5-8.1-13.4-9.8c-0.3-0.1-0.6-0.1-0.8,0l-9.5,4.6L17.9,39c-0.3-0.1-0.6-0.2-0.8-0.1
			c-3.4,1.3-13.4,6-14.4,9.9c-0.7,2.8-1,4.1-1,4.2c0,0.1,0,0.1,0,0.2c0,1.4,0.7,2,1.3,2.3c0.8,0.4,1.9,0.4,2.9,0.4
			c0.2,0,0.5,0,0.7,0h40c0.3,0,0.6,0,0.9,0c0.3,0,0.6,0,0.8,0c0.8,0,3.1,0,3.1-2.6C51.3,52.2,51.2,51.7,50.3,48.7z M48.2,53.9
			c-0.2,0-0.5,0-0.8,0c-0.3,0-0.6,0-1,0h-40c-0.2,0-0.5,0-0.7,0c-0.2,0-0.4,0-0.6,0c0,0,0,0,0,0c-0.3,0-1,0-1.3-0.2
			c-0.1,0-0.2-0.1-0.2-0.4c0.1-0.4,0.4-1.7,1-4c0.6-2.3,7.7-6.3,12.8-8.3l8.6,4.6c0.3,0.2,0.6,0.2,0.9,0l9.6-4.6
			c5.6,2.5,11.4,6.5,11.9,8.4c0.9,2.8,0.9,3.2,0.9,4C49.3,53.8,49.3,53.9,48.2,53.9z"/>
		<g>
			<path fill="#FF0000" d="M51.6,48c-1.9-4.4-9.4-9.3-14-10.4c-3-0.7-8.3,2.4-10.7,4.1c-1.5,1-0.9,0,0.1,0.4
				c-0.8-0.4-1.6-0.8-2.4-1.3c-1.8-1-3.9-2.5-5.9-3.2c-4.1-1.3-11.1,3.9-14,6.3C2,46.2-1,51,0.4,54.7c1.2,3.1,4.8,2.6,7.6,2.6
				c9.7,0,19.3,0,29,0c3.2,0,6.3,0,9.5,0c6.3,0,6.9-3.4,5.3-9c-0.5-1.8-3.4-1.1-2.9,0.8c0.8,2.5,1.5,4.7-1.5,5.2c-0.6,0.1-1.4,0-2,0
				c-2.6,0-5.3,0-7.9,0c-8.1,0-16.2,0-24.3,0c-2.1,0-4.3,0.2-6.3,0c-1.8-0.2-3.2-0.4-3.4-2.1c-0.4-3,2.7-5.6,4.8-7.1
				c2-1.4,4.2-2.5,6.4-3.5c2.4-1.1,2.6-1.4,4.8-0.2c1.9,1,5,3.6,7.3,3.6c3.2-0.1,6.1-3.9,9.2-4.4c3.5-0.5,11.6,5.4,13.1,8.8
				C49.7,51.3,52.3,49.7,51.6,48z"/>
			<path fill="#FF0000" d="M48.2,52.4c-6.9-0.2-13.8,0-20.7,0c-4.9,0-9.8,0-14.7,0c-1.9,0-4.4-0.5-6.3,0c-0.6,0.2-2-0.6-1.3,0.9
				c-0.5-1.1,1.2-3.9,1.8-4.7c1.8-2.2,6.1-4.2,8.7-5.2c2.5-1,0.2-0.9,2.5-0.3c1.1,0.3,2.2,1.2,3.2,1.7c1.3,0.7,2.8,1.9,4.2,2.2
				c3,0.6,6.9-2.5,9.4-3.7c0.4-0.2,1.6-1.1,2.1-1c0,0.9,0.5,1.4,1.6,1.5c1,0.5,1.9,1.1,2.9,1.7c2.4,1.5,7.1,4.4,6.1,8
				c0.5-0.4,1-0.7,1.4-1.1C48.8,52.3,48.5,52.3,48.2,52.4c-1.9,0.2-1.9,3.2,0,3c0.3,0,0.6-0.1,1-0.1c0.7-0.1,1.2-0.4,1.4-1.1
				c1-3.4-1.4-6.8-3.9-8.8c-3.4-2.7-8.2-7-12.5-5c-2.1,1-4.2,1.9-6.2,3c-1.9,1-1.2,1-3.1-0.1c-2.8-1.7-6-4.4-9.3-3.2
				c-4,1.5-10.5,4.4-12.4,8.6c-1.4,3-2,6.3,1.9,6.6c6.4,0.6,13,0,19.4,0c7.9,0,15.8-0.2,23.7,0C50.1,55.4,50.1,52.4,48.2,52.4z"/>
		</g>
	</g>
	<g>
		<path fill="#424242" d="M15.9,27.2c0.5,1.3,1.2,2.3,1.8,3.3c0.2,0.3,0.4,0.6,0.6,0.9c0.6,1.1,1.3,1.9,2,2.5c0,1-0.2,2.2-0.4,3.1
			c-0.1,0.5,0.2,1.1,0.7,1.2c0.5,0.1,1.1-0.2,1.2-0.7c0.3-1.2,0.4-2.9,0.5-4c0-0.3-0.2-0.7-0.4-0.8c-0.7-0.5-1.3-1.2-1.9-2.2
			c-0.2-0.3-0.4-0.6-0.6-0.9c-0.7-1.1-1.3-2-1.8-3.4c-0.1-0.4-0.5-0.6-0.9-0.7c-0.1,0-0.4-0.2-0.5-0.4c-1-1.9-1.4-4.7-1.3-5.3
			c0,0,0.1-0.1,0.4-0.1c0.3,0,0.5-0.1,0.7-0.3c0.2-0.2,0.3-0.5,0.3-0.7c-0.2-5.7,1.9-8.8,3.7-10.4c0.3-0.3,0.4-0.8,0.3-1.2
			c0,0,0-0.1,0-0.1c0.9-0.6,2.3-0.5,2.3-0.5l0.1-1l0.8-0.6c-0.1-0.2,0.1-0.5,0.3-0.9c0.6,0.5,1.3,0.8,2,1c2.1,0.6,3.5,1.2,4.5,1.6
			c4.3,1.7,6.6,6.1,6.4,12c0,0.3,0.1,0.5,0.3,0.7c0.2,0.2,0.4,0.3,0.7,0.3c0.2,0,0.3,0,0.3,0c0.2,0.6-0.2,3.4-1.2,5.3
			c-0.1,0.3-0.4,0.4-0.5,0.4c-0.4,0.1-0.7,0.3-0.8,0.6c-0.5,1.4-1.1,2.4-1.8,3.4c-0.2,0.3-0.4,0.6-0.6,1c-0.6,1-1.2,1.7-1.7,2.1
			c-0.2,0.2-0.4,0.5-0.4,0.8c0,0.9,0.1,2.7,0.5,4.2c0.1,0.4,0.5,0.7,1,0.7c0.1,0,0.2,0,0.3,0c0.5-0.1,0.8-0.7,0.7-1.2
			c-0.3-1.1-0.4-2.5-0.4-3.3c0.6-0.6,1.2-1.3,1.8-2.3c0.2-0.3,0.4-0.6,0.6-0.9c0.6-1,1.3-2,1.8-3.3c0.5-0.2,1-0.7,1.4-1.3
			c1.2-2.1,1.8-5.6,1.4-6.9c-0.2-0.5-0.6-0.9-1.1-1.2c0-6.3-2.8-11.2-7.6-13.1c-0.9-0.4-2.5-1-4.7-1.6c-1-0.3-1.4-0.7-1.5-0.8
			c0-0.3-0.2-0.5-0.4-0.7c-0.2-0.2-0.5-0.2-0.8-0.2c-0.9,0.2-1.6,1.3-1.9,2.1c-0.1,0.3-0.2,0.6-0.2,0.9c-1.3,0.2-3.2,0.8-3.7,2.7
			c-0.1,0.2-0.1,0.4,0,0.5c-1.7,1.9-3.4,5.1-3.4,10.1c-0.6,0.2-1,0.6-1.3,1.2c-0.5,1.4,0.2,4.8,1.4,6.9
			C14.8,26.4,15.3,26.9,15.9,27.2z"/>
		<g>
			<path fill="#FF0000" d="M14.6,27.9c0.9,2,2.6,3.8,3.5,5.8c0.3,0.7-0.1,3.8,0.7,4.8c1.2,1.5,3.1,1.5,4.2,0
				c5-6.6-6.9-12.6-6.5-18.9c-0.4,0.5-0.7,1-1.1,1.4c3.8-0.5,2.4-6.1,3.5-8.7c0.9-2,3.9-3.9,2.7-6.3c-0.3,0.7-0.6,1.5-0.9,2.2
				c0.6-0.3,1.2-0.5,1.9-0.5c0.8,0,1.5-0.7,1.5-1.5C24.2,5,24.2,7.3,24.4,6c0-0.2,0.7-1.4,0.8-1.6c-0.7,0.3-1.5,0.6-2.2,0.9
				c4.8,3,10.2,2.5,11.8,9.2c0.6,2.6-0.6,6.4,3.1,6.7c-0.5-0.5-1-1-1.5-1.5c0.2,2.7-1.6,4.8-2.9,6.9c-1.2,2-3.4,4.1-4.1,6.2
				c-0.6,2.1-0.1,7.3,3,7c3.3-0.3,1.7-4.5,2.5-6.2c1.9-4.2,5.5-6.8,6.2-11.6c0.2-1.5,0.1-2.6-0.4-4.1c-0.2-0.5-0.6-0.8-0.8-1.2
				c-0.3-1.1-0.2-2.5-0.5-3.7c-1.1-4.5-3.9-7.8-8.1-9.7c-2-0.9-4.3-2.2-6.2-2.9c-1.3-0.5-2.1-0.4-3.3,0.4c-0.9,0.7-1.3,1.9-2.1,2.6
				c-1.5,1.4-2.4,1.5-3.5,3.4c-2,3.5-2.9,7.4-4.3,11.1c-1.3,3.5-0.2,8.6,3.1,10.7c1.6,1,3.2-1.6,1.5-2.6c-3.7-2.3-1.1-6.8-0.8-9.9
				c0.3-2.9,2.4-9.3,6-10.1c0.5-0.1,0.9-0.6,1-1c1.1-4.1,0.1-1,1.5-1c0.5,0,2.6,1,2.9,1.1c4,1.4,7.3,3.1,8.8,7.4
				c0.7,2,0.9,4.4,1.3,6.5c0.8,3.6,0.7,3.6-1.3,7c-0.3,0.5-0.8,1.3-1.1,1.8c-1.1,1.8-3.5,4.1-3.8,5.9c-0.1,0.3,0,2.6,0.2,2.7
				c-0.1,0,1.5-3.4,1.8-3.8c2.3-4.1,6.5-7.7,6-12.8c-0.1-0.9-0.6-1.4-1.5-1.5c1.7,0.1-2.4-9.4-3.1-10.2c-2.9-3.1-6.9-3.1-10.3-5.2
				c-0.8-0.5-1.9,0-2.2,0.9c-0.3,1.1-1.1,1.4-1.2,2.8c0.5-0.5,1-1,1.5-1.5c-1,0-1.8,0.2-2.7,0.6C19,5.8,18.5,6.7,19,7.7
				c-0.4-0.9-2.8,3.4-3,3.7c-0.5,1.1-1.3,6.8-1.5,6.8c-0.7,0.1-1.1,0.9-1.1,1.4c-0.3,4.2,2.6,7.3,4.7,10.5c0.7,1.1,4.4,8.4,3.7,3.7
				c-0.4-2.4-3.5-5.1-4.6-7.4C16.4,24.6,13.8,26.2,14.6,27.9z"/>
		</g>
	</g>
</g>
</svg>
