<?xml version="1.0" encoding="utf-8"?>
<!-- Generator: Adobe Illustrator 19.0.0, SVG Export Plug-In . SVG Version: 6.00 Build 0)  -->
<svg version="1.1" id="icons" xmlns="http://www.w3.org/2000/svg" xmlns:xlink="http://www.w3.org/1999/xlink" x="0px" y="0px"
	 viewBox="0 0 57.8 45.4" enable-background="new 0 0 57.8 45.4" xml:space="preserve">
<g>
	<g>
		<path fill="#424242" d="M50.8,1.5h-44c-2.8,0-5,2.2-5,5v32c0,2.8,2.2,5,5,5h44c2.8,0,5-2.2,5-5v-32C55.8,3.7,53.6,1.5,50.8,1.5z
			 M53.8,38.5c0,1.7-1.3,3-3,3h-44c-1.7,0-3-1.3-3-3v-32c0-1.7,1.3-3,3-3h44c1.7,0,3,1.3,3,3V38.5z"/>
		<g>
			<path fill="#FFFFFF" d="M50.8,0C37.5,0,24.2,0,10.9,0C6,0,0.7,0.4,0.3,6.8c-0.4,6.8,0,13.8,0,20.7c0,4.7-1.7,13.8,3.2,16.7
				C7.4,46.4,14.9,45,19.1,45c8.3,0,16.5,0,24.8,0c4.9,0,12,1.1,13.2-5.4c1.3-6.8,0.1-14.7,0.1-21.5c0-5.9,2.2-16.9-6.1-18
				c-1.9-0.3-2.7,2.6-0.8,2.9c4.4,0.6,3.9,4,3.9,7.1c0,3.5,0,6.9,0,10.4c0,5.6,0.7,11.8,0,17.4c-0.7,5.5-7.4,4.1-11.5,4.1
				c-7.1,0-14.2,0-21.3,0c-4.6,0-9.8,0.7-14.4,0c-5.6-0.9-3.8-10.4-3.8-14.6c0-6.3-0.4-12.8,0-19.1C3.5,5.6,4,3.5,7.3,3
				c1.9-0.3,4.1,0,6,0c12.5,0,25,0,37.5,0C52.7,3,52.7,0,50.8,0z"/>
			<path fill="#FFFFFF" d="M52.3,38.1c-0.7,3.6-10.6,1.9-13,1.9c-7.1,0-14.1,0-21.2,0c-2.6,0-11.6,1.6-12.9-1.5
				c-0.5-1.1,0-3.4,0-4.6c0-3.5,0-6.9,0-10.4c0-3.2,0-6.4,0-9.6c0-2-0.6-5.1,0-7.1C6.3,3.5,13.8,5,16.5,5c7,0,14.1,0,21.1,0
				c2.7,0,5.4,0,8.1,0c1.3,0,3.7-0.4,4.9,0c2.4,0.9,1.7,3.8,1.7,5.8c0,3.6,0,7.2,0,10.7c0,5.7,0,11.3,0,17c0,1.9,3,1.9,3,0
				c0-6,0-12,0-18c0-3.7,0-7.4,0-11.1c0-2,0.3-4.2-1.1-5.8C51.7,0.6,44.4,2,41.1,2c-8.2,0-16.4,0-24.7,0C13.2,2,5.9,0.6,3.4,3.6
				C2,5.3,2.3,7.5,2.3,9.5c0,3.7,0,7.4,0,11.1c0,5.8-0.8,12.2,0,18c0.8,5.7,6.8,4.5,11,4.5c9.1,0,18.3,0,27.4,0
				c4.5,0,13.3,1.9,14.5-4.1C55.6,37,52.7,36.2,52.3,38.1z"/>
		</g>
	</g>
	<g>
		<path fill="#424242" d="M50.1,5.7l-19,16.4c-1.3,1.1-3.5,1.1-4.7,0L7.4,5.7C7,5.4,6.4,5.4,6,5.8c-0.4,0.4-0.3,1,0.1,1.4l19,16.4
			c1,0.9,2.3,1.3,3.7,1.3s2.7-0.4,3.7-1.3l19-16.4c0.4-0.4,0.5-1,0.1-1.4C51.2,5.4,50.6,5.4,50.1,5.7z"/>
		<g>
			<path fill="#FFFFFF" d="M49.1,4.7c-3.2,2.7-6.3,5.5-9.5,8.2c-2.3,2-8.5,9.7-12.2,8.2c-1.1-0.4-2.3-2-3.2-2.8
				c-2.2-1.9-4.4-3.8-6.6-5.7c-2.8-2.4-5.8-6.1-9.1-7.9C5.3,2.9,3.3,6,5.4,8.6c3,3.7,7.8,6.7,11.4,9.8c2.7,2.3,5.7,5.9,9,7.4
				c4.4,2,7.6-1,10.7-3.7c4.7-4.1,9.4-8.1,14.1-12.2c0.9-0.8,2.4-1.7,2.7-3c0.4-2.2-1.7-3.3-3.5-2.7c-1.8,0.6-1,3.5,0.8,2.9
				c-0.4,0.1,0.3-1-0.7-0.5c-0.5,0.2-0.9,0.8-1.3,1.2c-1.8,1.5-3.6,3.1-5.3,4.6c-3.4,2.9-6.7,6.1-10.2,8.8c-2.1,1.6-4,2.9-6.8,1.2
				c-0.9-0.6-1.8-1.6-2.6-2.3c-3.7-3.2-7.4-6.4-11.1-9.6c-1.2-1.1-2.5-2.5-3.9-3.3C7.8,6.9,6.1,5.4,6.8,7.2c0.4,1,2.6,2.3,3.4,2.9
				c1.9,1.6,3.8,3.2,5.6,4.9c4.1,3.5,10.7,12.3,16.6,8C39.1,18.1,45,12.1,51.2,6.8C52.7,5.5,50.5,3.4,49.1,4.7z"/>
		</g>
	</g>
</g>
</svg>
