<svg version="1.1" xmlns="http://www.w3.org/2000/svg" xmlns:xlink="http://www.w3.org/1999/xlink">

    <g id="icon1">
    	<g id="XMLID_51_">
    		<path id="XMLID_52_" fill="#E62C2E" d="M18.5,5.2l-4.6-5c-0.2-0.2-0.5-0.2-0.8-0.1c-0.1,0.1-0.3,0.2-0.3,0.5l0,2.2l-4.4,0
    			C8,2.8,7.6,3.2,7.6,3.7l0,4.1c0,0,0,0,0,0c0,0.5,0.4,0.9,0.8,0.9l4.4,0l0,2.3c0,0.3,0.1,0.5,0.4,0.6c0.3,0.1,0.6,0.1,0.8-0.1
    			l4.6-5c0.2-0.2,0.2-0.4,0.2-0.6C18.7,5.6,18.7,5.4,18.5,5.2z M14,9.4l0-0.8l0-1.4l-1.2,0l-4,0l0-3.1l4,0H14l0-1.4l0-0.6l3.3,3.6
    			L14,9.4z M10.3,10.1l-4.4,0l0-2.2c0-0.3-0.2-0.4-0.3-0.5C5.3,7.2,5,7.3,4.8,7.4l-4.6,5C0.1,12.6,0,12.9,0,13.1
    			c0,0.2,0.1,0.5,0.2,0.6l4.6,5C5,18.9,5.3,19,5.6,18.9c0.2-0.1,0.4-0.3,0.4-0.6l0-2.3l4.4,0c0.4,0,0.8-0.4,0.8-0.9c0,0,0,0,0,0
    			l0-4.1C11.2,10.5,10.8,10.1,10.3,10.1z M9.9,14.6l-4,0l-1.2,0l0,1.4l0,0.8l-3.3-3.6l3.3-3.6l0,0.6l0,1.4h1.2l4,0L9.9,14.6z"/>
    	</g>
    </g>
    <g id="icon2">
    	<g id="XMLID_40_">
    		<path id="XMLID_41_" fill-rule="evenodd" clip-rule="evenodd" fill="#E52620" d="M5,15.5c-0.4,0-0.7-0.3-0.7-0.7l0-6.8L0.8,8
    			c0,0-0.1,0-0.2-0.2c-0.1-0.2,0-0.5,0-0.6l6.8-6.6c0.1-0.1,0.3-0.2,0.5-0.2c0.2,0,0.4,0.1,0.5,0.2l6.8,6.6c0.1,0.1,0.2,0.4,0.1,0.6
    			c0,0.1-0.1,0.2-0.4,0.2l-3.7,0l0,6.8c0,0.4-0.3,0.7-0.7,0.7H5z M5.2,14.7l5.3,0l0-7.5l3.6,0L7.9,1.3L1.8,7.2l3.4,0L5.2,14.7z"/>
    	</g>
    	<g id="XMLID_32_">
    		<path id="XMLID_33_" fill="#E62C2E" d="M7.9,0C7.6,0,7.3,0.1,7.1,0.3L0.2,6.9C0,7.1-0.1,7.6,0.1,8c0.1,0.2,0.3,0.5,0.7,0.5l3,0
    			l0,6.3C3.8,15.5,4.4,16,5,16l5.5,0c0,0,0,0,0,0c0.7,0,1.2-0.5,1.2-1.2l0-6.3l3.2,0c0.4,0,0.7-0.2,0.8-0.5c0.2-0.4,0.1-0.9-0.2-1.1
    			L8.8,0.3C8.6,0.1,8.2,0,7.9,0L7.9,0z M3,6.7L7.9,2l4.9,4.7l-1,0l-1.9,0l0,1.8l0,5.7l-4.3,0l0-5.7V6.7l-1.9,0L3,6.7L3,6.7z"/>
    	</g>
    </g>
    <g id="icon3">
    	<g id="XMLID_40_">
    		<path id="XMLID_41_" fill-rule="evenodd" clip-rule="evenodd" fill="#E52620" d="M7.9,15.5c-0.2,0-0.4-0.1-0.5-0.2L0.6,8.7
    			c-0.1-0.1-0.1-0.3,0-0.6C0.6,8,0.7,8,0.8,8l3.5,0l0-6.8c0-0.4,0.3-0.7,0.7-0.7l5.5,0c0.4,0,0.7,0.3,0.7,0.7l0,6.8l3.7,0
    			c0.3,0,0.3,0.2,0.4,0.2c0.1,0.2,0,0.5-0.1,0.6l-6.8,6.6C8.3,15.4,8.1,15.5,7.9,15.5z M7.9,14.7l6.1-5.9l-3.6,0l0-7.5l-5.3,0l0,7.5
    			l-3.4,0L7.9,14.7z"/>
    	</g>
    	<g id="XMLID_32_">
    		<path id="XMLID_33_" fill="#E62C2E" d="M5,0C4.4,0,3.8,0.5,3.8,1.2l0,6.3l-3,0C0.4,7.5,0.2,7.8,0.1,8C-0.1,8.4,0,8.9,0.2,9.1
    			l6.8,6.6C7.3,15.9,7.6,16,7.9,16c0.3,0,0.6-0.1,0.9-0.3l6.8-6.6c0.3-0.3,0.3-0.7,0.2-1.1c-0.1-0.3-0.4-0.5-0.8-0.5l-3.2,0l0-6.3
    			c0-0.6-0.5-1.2-1.2-1.2c0,0,0,0,0,0L5,0L5,0z M5.7,9.2V7.5l0-5.7l4.3,0l0,5.7l0,1.8l1.9,0l1,0L7.9,14L3,9.2l0.8,0L5.7,9.2L5.7,9.2
    			z"/>
    	</g>
    </g>

    <g id="icon4">
    	<g>
    		<path fill="#424242" d="M50.3,48.7c-1-3.4-9.5-8.1-13.4-9.8c-0.3-0.1-0.6-0.1-0.8,0l-9.5,4.6L17.9,39c-0.3-0.1-0.6-0.2-0.8-0.1
    			c-3.4,1.3-13.4,6-14.4,9.9c-0.7,2.8-1,4.1-1,4.2c0,0.1,0,0.1,0,0.2c0,1.4,0.7,2,1.3,2.3c0.8,0.4,1.9,0.4,2.9,0.4
    			c0.2,0,0.5,0,0.7,0h40c0.3,0,0.6,0,0.9,0c0.3,0,0.6,0,0.8,0c0.8,0,3.1,0,3.1-2.6C51.3,52.2,51.2,51.7,50.3,48.7z M48.2,53.9
    			c-0.2,0-0.5,0-0.8,0c-0.3,0-0.6,0-1,0h-40c-0.2,0-0.5,0-0.7,0c-0.2,0-0.4,0-0.6,0c0,0,0,0,0,0c-0.3,0-1,0-1.3-0.2
    			c-0.1,0-0.2-0.1-0.2-0.4c0.1-0.4,0.4-1.7,1-4c0.6-2.3,7.7-6.3,12.8-8.3l8.6,4.6c0.3,0.2,0.6,0.2,0.9,0l9.6-4.6
    			c5.6,2.5,11.4,6.5,11.9,8.4c0.9,2.8,0.9,3.2,0.9,4C49.3,53.8,49.3,53.9,48.2,53.9z"/>
    		<g>
    			<path fill="#FF0000" d="M51.6,48c-1.9-4.4-9.4-9.3-14-10.4c-3-0.7-8.3,2.4-10.7,4.1c-1.5,1-0.9,0,0.1,0.4
    				c-0.8-0.4-1.6-0.8-2.4-1.3c-1.8-1-3.9-2.5-5.9-3.2c-4.1-1.3-11.1,3.9-14,6.3C2,46.2-1,51,0.4,54.7c1.2,3.1,4.8,2.6,7.6,2.6
    				c9.7,0,19.3,0,29,0c3.2,0,6.3,0,9.5,0c6.3,0,6.9-3.4,5.3-9c-0.5-1.8-3.4-1.1-2.9,0.8c0.8,2.5,1.5,4.7-1.5,5.2c-0.6,0.1-1.4,0-2,0
    				c-2.6,0-5.3,0-7.9,0c-8.1,0-16.2,0-24.3,0c-2.1,0-4.3,0.2-6.3,0c-1.8-0.2-3.2-0.4-3.4-2.1c-0.4-3,2.7-5.6,4.8-7.1
    				c2-1.4,4.2-2.5,6.4-3.5c2.4-1.1,2.6-1.4,4.8-0.2c1.9,1,5,3.6,7.3,3.6c3.2-0.1,6.1-3.9,9.2-4.4c3.5-0.5,11.6,5.4,13.1,8.8
    				C49.7,51.3,52.3,49.7,51.6,48z"/>
    			<path fill="#FF0000" d="M48.2,52.4c-6.9-0.2-13.8,0-20.7,0c-4.9,0-9.8,0-14.7,0c-1.9,0-4.4-0.5-6.3,0c-0.6,0.2-2-0.6-1.3,0.9
    				c-0.5-1.1,1.2-3.9,1.8-4.7c1.8-2.2,6.1-4.2,8.7-5.2c2.5-1,0.2-0.9,2.5-0.3c1.1,0.3,2.2,1.2,3.2,1.7c1.3,0.7,2.8,1.9,4.2,2.2
    				c3,0.6,6.9-2.5,9.4-3.7c0.4-0.2,1.6-1.1,2.1-1c0,0.9,0.5,1.4,1.6,1.5c1,0.5,1.9,1.1,2.9,1.7c2.4,1.5,7.1,4.4,6.1,8
    				c0.5-0.4,1-0.7,1.4-1.1C48.8,52.3,48.5,52.3,48.2,52.4c-1.9,0.2-1.9,3.2,0,3c0.3,0,0.6-0.1,1-0.1c0.7-0.1,1.2-0.4,1.4-1.1
    				c1-3.4-1.4-6.8-3.9-8.8c-3.4-2.7-8.2-7-12.5-5c-2.1,1-4.2,1.9-6.2,3c-1.9,1-1.2,1-3.1-0.1c-2.8-1.7-6-4.4-9.3-3.2
    				c-4,1.5-10.5,4.4-12.4,8.6c-1.4,3-2,6.3,1.9,6.6c6.4,0.6,13,0,19.4,0c7.9,0,15.8-0.2,23.7,0C50.1,55.4,50.1,52.4,48.2,52.4z"/>
    		</g>
    	</g>
    	<g>
    		<path fill="#424242" d="M15.9,27.2c0.5,1.3,1.2,2.3,1.8,3.3c0.2,0.3,0.4,0.6,0.6,0.9c0.6,1.1,1.3,1.9,2,2.5c0,1-0.2,2.2-0.4,3.1
    			c-0.1,0.5,0.2,1.1,0.7,1.2c0.5,0.1,1.1-0.2,1.2-0.7c0.3-1.2,0.4-2.9,0.5-4c0-0.3-0.2-0.7-0.4-0.8c-0.7-0.5-1.3-1.2-1.9-2.2
    			c-0.2-0.3-0.4-0.6-0.6-0.9c-0.7-1.1-1.3-2-1.8-3.4c-0.1-0.4-0.5-0.6-0.9-0.7c-0.1,0-0.4-0.2-0.5-0.4c-1-1.9-1.4-4.7-1.3-5.3
    			c0,0,0.1-0.1,0.4-0.1c0.3,0,0.5-0.1,0.7-0.3c0.2-0.2,0.3-0.5,0.3-0.7c-0.2-5.7,1.9-8.8,3.7-10.4c0.3-0.3,0.4-0.8,0.3-1.2
    			c0,0,0-0.1,0-0.1c0.9-0.6,2.3-0.5,2.3-0.5l0.1-1l0.8-0.6c-0.1-0.2,0.1-0.5,0.3-0.9c0.6,0.5,1.3,0.8,2,1c2.1,0.6,3.5,1.2,4.5,1.6
    			c4.3,1.7,6.6,6.1,6.4,12c0,0.3,0.1,0.5,0.3,0.7c0.2,0.2,0.4,0.3,0.7,0.3c0.2,0,0.3,0,0.3,0c0.2,0.6-0.2,3.4-1.2,5.3
    			c-0.1,0.3-0.4,0.4-0.5,0.4c-0.4,0.1-0.7,0.3-0.8,0.6c-0.5,1.4-1.1,2.4-1.8,3.4c-0.2,0.3-0.4,0.6-0.6,1c-0.6,1-1.2,1.7-1.7,2.1
    			c-0.2,0.2-0.4,0.5-0.4,0.8c0,0.9,0.1,2.7,0.5,4.2c0.1,0.4,0.5,0.7,1,0.7c0.1,0,0.2,0,0.3,0c0.5-0.1,0.8-0.7,0.7-1.2
    			c-0.3-1.1-0.4-2.5-0.4-3.3c0.6-0.6,1.2-1.3,1.8-2.3c0.2-0.3,0.4-0.6,0.6-0.9c0.6-1,1.3-2,1.8-3.3c0.5-0.2,1-0.7,1.4-1.3
    			c1.2-2.1,1.8-5.6,1.4-6.9c-0.2-0.5-0.6-0.9-1.1-1.2c0-6.3-2.8-11.2-7.6-13.1c-0.9-0.4-2.5-1-4.7-1.6c-1-0.3-1.4-0.7-1.5-0.8
    			c0-0.3-0.2-0.5-0.4-0.7c-0.2-0.2-0.5-0.2-0.8-0.2c-0.9,0.2-1.6,1.3-1.9,2.1c-0.1,0.3-0.2,0.6-0.2,0.9c-1.3,0.2-3.2,0.8-3.7,2.7
    			c-0.1,0.2-0.1,0.4,0,0.5c-1.7,1.9-3.4,5.1-3.4,10.1c-0.6,0.2-1,0.6-1.3,1.2c-0.5,1.4,0.2,4.8,1.4,6.9
    			C14.8,26.4,15.3,26.9,15.9,27.2z"/>
    		<g>
    			<path fill="#FF0000" d="M14.6,27.9c0.9,2,2.6,3.8,3.5,5.8c0.3,0.7-0.1,3.8,0.7,4.8c1.2,1.5,3.1,1.5,4.2,0
    				c5-6.6-6.9-12.6-6.5-18.9c-0.4,0.5-0.7,1-1.1,1.4c3.8-0.5,2.4-6.1,3.5-8.7c0.9-2,3.9-3.9,2.7-6.3c-0.3,0.7-0.6,1.5-0.9,2.2
    				c0.6-0.3,1.2-0.5,1.9-0.5c0.8,0,1.5-0.7,1.5-1.5C24.2,5,24.2,7.3,24.4,6c0-0.2,0.7-1.4,0.8-1.6c-0.7,0.3-1.5,0.6-2.2,0.9
    				c4.8,3,10.2,2.5,11.8,9.2c0.6,2.6-0.6,6.4,3.1,6.7c-0.5-0.5-1-1-1.5-1.5c0.2,2.7-1.6,4.8-2.9,6.9c-1.2,2-3.4,4.1-4.1,6.2
    				c-0.6,2.1-0.1,7.3,3,7c3.3-0.3,1.7-4.5,2.5-6.2c1.9-4.2,5.5-6.8,6.2-11.6c0.2-1.5,0.1-2.6-0.4-4.1c-0.2-0.5-0.6-0.8-0.8-1.2
    				c-0.3-1.1-0.2-2.5-0.5-3.7c-1.1-4.5-3.9-7.8-8.1-9.7c-2-0.9-4.3-2.2-6.2-2.9c-1.3-0.5-2.1-0.4-3.3,0.4c-0.9,0.7-1.3,1.9-2.1,2.6
    				c-1.5,1.4-2.4,1.5-3.5,3.4c-2,3.5-2.9,7.4-4.3,11.1c-1.3,3.5-0.2,8.6,3.1,10.7c1.6,1,3.2-1.6,1.5-2.6c-3.7-2.3-1.1-6.8-0.8-9.9
    				c0.3-2.9,2.4-9.3,6-10.1c0.5-0.1,0.9-0.6,1-1c1.1-4.1,0.1-1,1.5-1c0.5,0,2.6,1,2.9,1.1c4,1.4,7.3,3.1,8.8,7.4
    				c0.7,2,0.9,4.4,1.3,6.5c0.8,3.6,0.7,3.6-1.3,7c-0.3,0.5-0.8,1.3-1.1,1.8c-1.1,1.8-3.5,4.1-3.8,5.9c-0.1,0.3,0,2.6,0.2,2.7
    				c-0.1,0,1.5-3.4,1.8-3.8c2.3-4.1,6.5-7.7,6-12.8c-0.1-0.9-0.6-1.4-1.5-1.5c1.7,0.1-2.4-9.4-3.1-10.2c-2.9-3.1-6.9-3.1-10.3-5.2
    				c-0.8-0.5-1.9,0-2.2,0.9c-0.3,1.1-1.1,1.4-1.2,2.8c0.5-0.5,1-1,1.5-1.5c-1,0-1.8,0.2-2.7,0.6C19,5.8,18.5,6.7,19,7.7
    				c-0.4-0.9-2.8,3.4-3,3.7c-0.5,1.1-1.3,6.8-1.5,6.8c-0.7,0.1-1.1,0.9-1.1,1.4c-0.3,4.2,2.6,7.3,4.7,10.5c0.7,1.1,4.4,8.4,3.7,3.7
    				c-0.4-2.4-3.5-5.1-4.6-7.4C16.4,24.6,13.8,26.2,14.6,27.9z"/>
    		</g>
    	</g>
    </g>
    <g id="icon5">
    	<g>
    		<path fill="#424242" d="M50.8,1.5h-44c-2.8,0-5,2.2-5,5v32c0,2.8,2.2,5,5,5h44c2.8,0,5-2.2,5-5v-32C55.8,3.7,53.6,1.5,50.8,1.5z
    			 M53.8,38.5c0,1.7-1.3,3-3,3h-44c-1.7,0-3-1.3-3-3v-32c0-1.7,1.3-3,3-3h44c1.7,0,3,1.3,3,3V38.5z"/>
    		<g>
    			<path fill="#FFFFFF" d="M50.8,0C37.5,0,24.2,0,10.9,0C6,0,0.7,0.4,0.3,6.8c-0.4,6.8,0,13.8,0,20.7c0,4.7-1.7,13.8,3.2,16.7
    				C7.4,46.4,14.9,45,19.1,45c8.3,0,16.5,0,24.8,0c4.9,0,12,1.1,13.2-5.4c1.3-6.8,0.1-14.7,0.1-21.5c0-5.9,2.2-16.9-6.1-18
    				c-1.9-0.3-2.7,2.6-0.8,2.9c4.4,0.6,3.9,4,3.9,7.1c0,3.5,0,6.9,0,10.4c0,5.6,0.7,11.8,0,17.4c-0.7,5.5-7.4,4.1-11.5,4.1
    				c-7.1,0-14.2,0-21.3,0c-4.6,0-9.8,0.7-14.4,0c-5.6-0.9-3.8-10.4-3.8-14.6c0-6.3-0.4-12.8,0-19.1C3.5,5.6,4,3.5,7.3,3
    				c1.9-0.3,4.1,0,6,0c12.5,0,25,0,37.5,0C52.7,3,52.7,0,50.8,0z"/>
    			<path fill="#FFFFFF" d="M52.3,38.1c-0.7,3.6-10.6,1.9-13,1.9c-7.1,0-14.1,0-21.2,0c-2.6,0-11.6,1.6-12.9-1.5
    				c-0.5-1.1,0-3.4,0-4.6c0-3.5,0-6.9,0-10.4c0-3.2,0-6.4,0-9.6c0-2-0.6-5.1,0-7.1C6.3,3.5,13.8,5,16.5,5c7,0,14.1,0,21.1,0
    				c2.7,0,5.4,0,8.1,0c1.3,0,3.7-0.4,4.9,0c2.4,0.9,1.7,3.8,1.7,5.8c0,3.6,0,7.2,0,10.7c0,5.7,0,11.3,0,17c0,1.9,3,1.9,3,0
    				c0-6,0-12,0-18c0-3.7,0-7.4,0-11.1c0-2,0.3-4.2-1.1-5.8C51.7,0.6,44.4,2,41.1,2c-8.2,0-16.4,0-24.7,0C13.2,2,5.9,0.6,3.4,3.6
    				C2,5.3,2.3,7.5,2.3,9.5c0,3.7,0,7.4,0,11.1c0,5.8-0.8,12.2,0,18c0.8,5.7,6.8,4.5,11,4.5c9.1,0,18.3,0,27.4,0
    				c4.5,0,13.3,1.9,14.5-4.1C55.6,37,52.7,36.2,52.3,38.1z"/>
    		</g>
    	</g>
    	<g>
    		<path fill="#424242" d="M50.1,5.7l-19,16.4c-1.3,1.1-3.5,1.1-4.7,0L7.4,5.7C7,5.4,6.4,5.4,6,5.8c-0.4,0.4-0.3,1,0.1,1.4l19,16.4
    			c1,0.9,2.3,1.3,3.7,1.3s2.7-0.4,3.7-1.3l19-16.4c0.4-0.4,0.5-1,0.1-1.4C51.2,5.4,50.6,5.4,50.1,5.7z"/>
    		<g>
    			<path fill="#FFFFFF" d="M49.1,4.7c-3.2,2.7-6.3,5.5-9.5,8.2c-2.3,2-8.5,9.7-12.2,8.2c-1.1-0.4-2.3-2-3.2-2.8
    				c-2.2-1.9-4.4-3.8-6.6-5.7c-2.8-2.4-5.8-6.1-9.1-7.9C5.3,2.9,3.3,6,5.4,8.6c3,3.7,7.8,6.7,11.4,9.8c2.7,2.3,5.7,5.9,9,7.4
    				c4.4,2,7.6-1,10.7-3.7c4.7-4.1,9.4-8.1,14.1-12.2c0.9-0.8,2.4-1.7,2.7-3c0.4-2.2-1.7-3.3-3.5-2.7c-1.8,0.6-1,3.5,0.8,2.9
    				c-0.4,0.1,0.3-1-0.7-0.5c-0.5,0.2-0.9,0.8-1.3,1.2c-1.8,1.5-3.6,3.1-5.3,4.6c-3.4,2.9-6.7,6.1-10.2,8.8c-2.1,1.6-4,2.9-6.8,1.2
    				c-0.9-0.6-1.8-1.6-2.6-2.3c-3.7-3.2-7.4-6.4-11.1-9.6c-1.2-1.1-2.5-2.5-3.9-3.3C7.8,6.9,6.1,5.4,6.8,7.2c0.4,1,2.6,2.3,3.4,2.9
    				c1.9,1.6,3.8,3.2,5.6,4.9c4.1,3.5,10.7,12.3,16.6,8C39.1,18.1,45,12.1,51.2,6.8C52.7,5.5,50.5,3.4,49.1,4.7z"/>
    		</g>
    	</g>
    </g>
    <g id="icon0">
    	<g id="Rectangle_42_1_" enable-background="new    ">
        	<g id="Rectangle_42">
        		<g>
        			<rect x="0" y="20" fill-rule="evenodd" clip-rule="evenodd" fill="#e30611" width="7" height="13"/>
        		</g>
        	</g>
        </g>
        <g id="Rectangle_42_copy_1_" enable-background="new    ">
        	<g id="Rectangle_42_copy">
        		<g>
        			<rect x="10" y="15" fill-rule="evenodd" clip-rule="evenodd" fill="#e30611" width="7" height="18"/>
        		</g>
        	</g>
        </g>
        <g id="Rectangle_42_copy_2_1_" enable-background="new    ">
        	<g id="Rectangle_42_copy_2">
        		<g>
        			<rect x="20" y="10" fill-rule="evenodd" clip-rule="evenodd" fill="#e30611" width="7" height="23"/>
        		</g>
        	</g>
        </g>
        <g id="Rectangle_42_copy_3_1_" enable-background="new    ">
        	<g id="Rectangle_42_copy_3">
        		<g>
        			<path fill="#e30611" d="M36,6v26h-5V6H36 M37,5h-7v28h7V5L37,5z"/>
        		</g>
        	</g>
        </g>
        <g id="Rectangle_42_copy_4_1_" enable-background="new    ">
        	<g id="Rectangle_42_copy_4">
        		<g>
        			<path fill="#e30611" d="M46,1v31h-5V1H46 M47,0h-7v33h7V0L47,0z"/>
        		</g>
        	</g>
        </g>
    </g>

</svg>