<svg version="1.1" xmlns="http://www.w3.org/2000/svg" xmlns:xlink="http://www.w3.org/1999/xlink">

    <g id="icon1">
    	<g id="XMLID_51_">
    		<path id="XMLID_52_"  d="M18.5,5.2l-4.6-5c-0.2-0.2-0.5-0.2-0.8-0.1c-0.1,0.1-0.3,0.2-0.3,0.5l0,2.2l-4.4,0
    			C8,2.8,7.6,3.2,7.6,3.7l0,4.1c0,0,0,0,0,0c0,0.5,0.4,0.9,0.8,0.9l4.4,0l0,2.3c0,0.3,0.1,0.5,0.4,0.6c0.3,0.1,0.6,0.1,0.8-0.1
    			l4.6-5c0.2-0.2,0.2-0.4,0.2-0.6C18.7,5.6,18.7,5.4,18.5,5.2z M14,9.4l0-0.8l0-1.4l-1.2,0l-4,0l0-3.1l4,0H14l0-1.4l0-0.6l3.3,3.6
    			L14,9.4z M10.3,10.1l-4.4,0l0-2.2c0-0.3-0.2-0.4-0.3-0.5C5.3,7.2,5,7.3,4.8,7.4l-4.6,5C0.1,12.6,0,12.9,0,13.1
    			c0,0.2,0.1,0.5,0.2,0.6l4.6,5C5,18.9,5.3,19,5.6,18.9c0.2-0.1,0.4-0.3,0.4-0.6l0-2.3l4.4,0c0.4,0,0.8-0.4,0.8-0.9c0,0,0,0,0,0
    			l0-4.1C11.2,10.5,10.8,10.1,10.3,10.1z M9.9,14.6l-4,0l-1.2,0l0,1.4l0,0.8l-3.3-3.6l3.3-3.6l0,0.6l0,1.4h1.2l4,0L9.9,14.6z"/>
    	</g>
    </g>
    <g id="icon2">
    	<g id="XMLID_40_">
    		<path id="XMLID_41_" fill-rule="evenodd" clip-rule="evenodd"  d="M5,15.5c-0.4,0-0.7-0.3-0.7-0.7l0-6.8L0.8,8
    			c0,0-0.1,0-0.2-0.2c-0.1-0.2,0-0.5,0-0.6l6.8-6.6c0.1-0.1,0.3-0.2,0.5-0.2c0.2,0,0.4,0.1,0.5,0.2l6.8,6.6c0.1,0.1,0.2,0.4,0.1,0.6
    			c0,0.1-0.1,0.2-0.4,0.2l-3.7,0l0,6.8c0,0.4-0.3,0.7-0.7,0.7H5z M5.2,14.7l5.3,0l0-7.5l3.6,0L7.9,1.3L1.8,7.2l3.4,0L5.2,14.7z"/>
    	</g>
    	<g id="XMLID_32_">
    		<path id="XMLID_33_"  d="M7.9,0C7.6,0,7.3,0.1,7.1,0.3L0.2,6.9C0,7.1-0.1,7.6,0.1,8c0.1,0.2,0.3,0.5,0.7,0.5l3,0
    			l0,6.3C3.8,15.5,4.4,16,5,16l5.5,0c0,0,0,0,0,0c0.7,0,1.2-0.5,1.2-1.2l0-6.3l3.2,0c0.4,0,0.7-0.2,0.8-0.5c0.2-0.4,0.1-0.9-0.2-1.1
    			L8.8,0.3C8.6,0.1,8.2,0,7.9,0L7.9,0z M3,6.7L7.9,2l4.9,4.7l-1,0l-1.9,0l0,1.8l0,5.7l-4.3,0l0-5.7V6.7l-1.9,0L3,6.7L3,6.7z"/>
    	</g>
    </g>
    <g id="icon3">
    	<g id="XMLID_40_">
    		<path id="XMLID_41_" fill-rule="evenodd" clip-rule="evenodd"  d="M7.9,15.5c-0.2,0-0.4-0.1-0.5-0.2L0.6,8.7
    			c-0.1-0.1-0.1-0.3,0-0.6C0.6,8,0.7,8,0.8,8l3.5,0l0-6.8c0-0.4,0.3-0.7,0.7-0.7l5.5,0c0.4,0,0.7,0.3,0.7,0.7l0,6.8l3.7,0
    			c0.3,0,0.3,0.2,0.4,0.2c0.1,0.2,0,0.5-0.1,0.6l-6.8,6.6C8.3,15.4,8.1,15.5,7.9,15.5z M7.9,14.7l6.1-5.9l-3.6,0l0-7.5l-5.3,0l0,7.5
    			l-3.4,0L7.9,14.7z"/>
    	</g>
    	<g id="XMLID_32_">
    		<path id="XMLID_33_"  d="M5,0C4.4,0,3.8,0.5,3.8,1.2l0,6.3l-3,0C0.4,7.5,0.2,7.8,0.1,8C-0.1,8.4,0,8.9,0.2,9.1
    			l6.8,6.6C7.3,15.9,7.6,16,7.9,16c0.3,0,0.6-0.1,0.9-0.3l6.8-6.6c0.3-0.3,0.3-0.7,0.2-1.1c-0.1-0.3-0.4-0.5-0.8-0.5l-3.2,0l0-6.3
    			c0-0.6-0.5-1.2-1.2-1.2c0,0,0,0,0,0L5,0L5,0z M5.7,9.2V7.5l0-5.7l4.3,0l0,5.7l0,1.8l1.9,0l1,0L7.9,14L3,9.2l0.8,0L5.7,9.2L5.7,9.2
    			z"/>
    	</g>
    </g>

    <g id="icon4">
    	<g>
    		<path fill="#424242" d="M50.3,48.7c-1-3.4-9.5-8.1-13.4-9.8c-0.3-0.1-0.6-0.1-0.8,0l-9.5,4.6L17.9,39c-0.3-0.1-0.6-0.2-0.8-0.1
    			c-3.4,1.3-13.4,6-14.4,9.9c-0.7,2.8-1,4.1-1,4.2c0,0.1,0,0.1,0,0.2c0,1.4,0.7,2,1.3,2.3c0.8,0.4,1.9,0.4,2.9,0.4
    			c0.2,0,0.5,0,0.7,0h40c0.3,0,0.6,0,0.9,0c0.3,0,0.6,0,0.8,0c0.8,0,3.1,0,3.1-2.6C51.3,52.2,51.2,51.7,50.3,48.7z M48.2,53.9
    			c-0.2,0-0.5,0-0.8,0c-0.3,0-0.6,0-1,0h-40c-0.2,0-0.5,0-0.7,0c-0.2,0-0.4,0-0.6,0c0,0,0,0,0,0c-0.3,0-1,0-1.3-0.2
    			c-0.1,0-0.2-0.1-0.2-0.4c0.1-0.4,0.4-1.7,1-4c0.6-2.3,7.7-6.3,12.8-8.3l8.6,4.6c0.3,0.2,0.6,0.2,0.9,0l9.6-4.6
    			c5.6,2.5,11.4,6.5,11.9,8.4c0.9,2.8,0.9,3.2,0.9,4C49.3,53.8,49.3,53.9,48.2,53.9z"/>
    		<g>
    			<path  d="M51.6,48c-1.9-4.4-9.4-9.3-14-10.4c-3-0.7-8.3,2.4-10.7,4.1c-1.5,1-0.9,0,0.1,0.4
    				c-0.8-0.4-1.6-0.8-2.4-1.3c-1.8-1-3.9-2.5-5.9-3.2c-4.1-1.3-11.1,3.9-14,6.3C2,46.2-1,51,0.4,54.7c1.2,3.1,4.8,2.6,7.6,2.6
    				c9.7,0,19.3,0,29,0c3.2,0,6.3,0,9.5,0c6.3,0,6.9-3.4,5.3-9c-0.5-1.8-3.4-1.1-2.9,0.8c0.8,2.5,1.5,4.7-1.5,5.2c-0.6,0.1-1.4,0-2,0
    				c-2.6,0-5.3,0-7.9,0c-8.1,0-16.2,0-24.3,0c-2.1,0-4.3,0.2-6.3,0c-1.8-0.2-3.2-0.4-3.4-2.1c-0.4-3,2.7-5.6,4.8-7.1
    				c2-1.4,4.2-2.5,6.4-3.5c2.4-1.1,2.6-1.4,4.8-0.2c1.9,1,5,3.6,7.3,3.6c3.2-0.1,6.1-3.9,9.2-4.4c3.5-0.5,11.6,5.4,13.1,8.8
    				C49.7,51.3,52.3,49.7,51.6,48z"/>
    			<path  d="M48.2,52.4c-6.9-0.2-13.8,0-20.7,0c-4.9,0-9.8,0-14.7,0c-1.9,0-4.4-0.5-6.3,0c-0.6,0.2-2-0.6-1.3,0.9
    				c-0.5-1.1,1.2-3.9,1.8-4.7c1.8-2.2,6.1-4.2,8.7-5.2c2.5-1,0.2-0.9,2.5-0.3c1.1,0.3,2.2,1.2,3.2,1.7c1.3,0.7,2.8,1.9,4.2,2.2
    				c3,0.6,6.9-2.5,9.4-3.7c0.4-0.2,1.6-1.1,2.1-1c0,0.9,0.5,1.4,1.6,1.5c1,0.5,1.9,1.1,2.9,1.7c2.4,1.5,7.1,4.4,6.1,8
    				c0.5-0.4,1-0.7,1.4-1.1C48.8,52.3,48.5,52.3,48.2,52.4c-1.9,0.2-1.9,3.2,0,3c0.3,0,0.6-0.1,1-0.1c0.7-0.1,1.2-0.4,1.4-1.1
    				c1-3.4-1.4-6.8-3.9-8.8c-3.4-2.7-8.2-7-12.5-5c-2.1,1-4.2,1.9-6.2,3c-1.9,1-1.2,1-3.1-0.1c-2.8-1.7-6-4.4-9.3-3.2
    				c-4,1.5-10.5,4.4-12.4,8.6c-1.4,3-2,6.3,1.9,6.6c6.4,0.6,13,0,19.4,0c7.9,0,15.8-0.2,23.7,0C50.1,55.4,50.1,52.4,48.2,52.4z"/>
    		</g>
    	</g>
    	<g>
    		<path fill="#424242" d="M15.9,27.2c0.5,1.3,1.2,2.3,1.8,3.3c0.2,0.3,0.4,0.6,0.6,0.9c0.6,1.1,1.3,1.9,2,2.5c0,1-0.2,2.2-0.4,3.1
    			c-0.1,0.5,0.2,1.1,0.7,1.2c0.5,0.1,1.1-0.2,1.2-0.7c0.3-1.2,0.4-2.9,0.5-4c0-0.3-0.2-0.7-0.4-0.8c-0.7-0.5-1.3-1.2-1.9-2.2
    			c-0.2-0.3-0.4-0.6-0.6-0.9c-0.7-1.1-1.3-2-1.8-3.4c-0.1-0.4-0.5-0.6-0.9-0.7c-0.1,0-0.4-0.2-0.5-0.4c-1-1.9-1.4-4.7-1.3-5.3
    			c0,0,0.1-0.1,0.4-0.1c0.3,0,0.5-0.1,0.7-0.3c0.2-0.2,0.3-0.5,0.3-0.7c-0.2-5.7,1.9-8.8,3.7-10.4c0.3-0.3,0.4-0.8,0.3-1.2
    			c0,0,0-0.1,0-0.1c0.9-0.6,2.3-0.5,2.3-0.5l0.1-1l0.8-0.6c-0.1-0.2,0.1-0.5,0.3-0.9c0.6,0.5,1.3,0.8,2,1c2.1,0.6,3.5,1.2,4.5,1.6
    			c4.3,1.7,6.6,6.1,6.4,12c0,0.3,0.1,0.5,0.3,0.7c0.2,0.2,0.4,0.3,0.7,0.3c0.2,0,0.3,0,0.3,0c0.2,0.6-0.2,3.4-1.2,5.3
    			c-0.1,0.3-0.4,0.4-0.5,0.4c-0.4,0.1-0.7,0.3-0.8,0.6c-0.5,1.4-1.1,2.4-1.8,3.4c-0.2,0.3-0.4,0.6-0.6,1c-0.6,1-1.2,1.7-1.7,2.1
    			c-0.2,0.2-0.4,0.5-0.4,0.8c0,0.9,0.1,2.7,0.5,4.2c0.1,0.4,0.5,0.7,1,0.7c0.1,0,0.2,0,0.3,0c0.5-0.1,0.8-0.7,0.7-1.2
    			c-0.3-1.1-0.4-2.5-0.4-3.3c0.6-0.6,1.2-1.3,1.8-2.3c0.2-0.3,0.4-0.6,0.6-0.9c0.6-1,1.3-2,1.8-3.3c0.5-0.2,1-0.7,1.4-1.3
    			c1.2-2.1,1.8-5.6,1.4-6.9c-0.2-0.5-0.6-0.9-1.1-1.2c0-6.3-2.8-11.2-7.6-13.1c-0.9-0.4-2.5-1-4.7-1.6c-1-0.3-1.4-0.7-1.5-0.8
    			c0-0.3-0.2-0.5-0.4-0.7c-0.2-0.2-0.5-0.2-0.8-0.2c-0.9,0.2-1.6,1.3-1.9,2.1c-0.1,0.3-0.2,0.6-0.2,0.9c-1.3,0.2-3.2,0.8-3.7,2.7
    			c-0.1,0.2-0.1,0.4,0,0.5c-1.7,1.9-3.4,5.1-3.4,10.1c-0.6,0.2-1,0.6-1.3,1.2c-0.5,1.4,0.2,4.8,1.4,6.9
    			C14.8,26.4,15.3,26.9,15.9,27.2z"/>
    		<g>
    			<path  d="M14.6,27.9c0.9,2,2.6,3.8,3.5,5.8c0.3,0.7-0.1,3.8,0.7,4.8c1.2,1.5,3.1,1.5,4.2,0
    				c5-6.6-6.9-12.6-6.5-18.9c-0.4,0.5-0.7,1-1.1,1.4c3.8-0.5,2.4-6.1,3.5-8.7c0.9-2,3.9-3.9,2.7-6.3c-0.3,0.7-0.6,1.5-0.9,2.2
    				c0.6-0.3,1.2-0.5,1.9-0.5c0.8,0,1.5-0.7,1.5-1.5C24.2,5,24.2,7.3,24.4,6c0-0.2,0.7-1.4,0.8-1.6c-0.7,0.3-1.5,0.6-2.2,0.9
    				c4.8,3,10.2,2.5,11.8,9.2c0.6,2.6-0.6,6.4,3.1,6.7c-0.5-0.5-1-1-1.5-1.5c0.2,2.7-1.6,4.8-2.9,6.9c-1.2,2-3.4,4.1-4.1,6.2
    				c-0.6,2.1-0.1,7.3,3,7c3.3-0.3,1.7-4.5,2.5-6.2c1.9-4.2,5.5-6.8,6.2-11.6c0.2-1.5,0.1-2.6-0.4-4.1c-0.2-0.5-0.6-0.8-0.8-1.2
    				c-0.3-1.1-0.2-2.5-0.5-3.7c-1.1-4.5-3.9-7.8-8.1-9.7c-2-0.9-4.3-2.2-6.2-2.9c-1.3-0.5-2.1-0.4-3.3,0.4c-0.9,0.7-1.3,1.9-2.1,2.6
    				c-1.5,1.4-2.4,1.5-3.5,3.4c-2,3.5-2.9,7.4-4.3,11.1c-1.3,3.5-0.2,8.6,3.1,10.7c1.6,1,3.2-1.6,1.5-2.6c-3.7-2.3-1.1-6.8-0.8-9.9
    				c0.3-2.9,2.4-9.3,6-10.1c0.5-0.1,0.9-0.6,1-1c1.1-4.1,0.1-1,1.5-1c0.5,0,2.6,1,2.9,1.1c4,1.4,7.3,3.1,8.8,7.4
    				c0.7,2,0.9,4.4,1.3,6.5c0.8,3.6,0.7,3.6-1.3,7c-0.3,0.5-0.8,1.3-1.1,1.8c-1.1,1.8-3.5,4.1-3.8,5.9c-0.1,0.3,0,2.6,0.2,2.7
    				c-0.1,0,1.5-3.4,1.8-3.8c2.3-4.1,6.5-7.7,6-12.8c-0.1-0.9-0.6-1.4-1.5-1.5c1.7,0.1-2.4-9.4-3.1-10.2c-2.9-3.1-6.9-3.1-10.3-5.2
    				c-0.8-0.5-1.9,0-2.2,0.9c-0.3,1.1-1.1,1.4-1.2,2.8c0.5-0.5,1-1,1.5-1.5c-1,0-1.8,0.2-2.7,0.6C19,5.8,18.5,6.7,19,7.7
    				c-0.4-0.9-2.8,3.4-3,3.7c-0.5,1.1-1.3,6.8-1.5,6.8c-0.7,0.1-1.1,0.9-1.1,1.4c-0.3,4.2,2.6,7.3,4.7,10.5c0.7,1.1,4.4,8.4,3.7,3.7
    				c-0.4-2.4-3.5-5.1-4.6-7.4C16.4,24.6,13.8,26.2,14.6,27.9z"/>
    		</g>
    	</g>
    </g>
    <g id="icon5">
    	<g>
    		<path fill="#424242" d="M50.8,1.5h-44c-2.8,0-5,2.2-5,5v32c0,2.8,2.2,5,5,5h44c2.8,0,5-2.2,5-5v-32C55.8,3.7,53.6,1.5,50.8,1.5z
    			 M53.8,38.5c0,1.7-1.3,3-3,3h-44c-1.7,0-3-1.3-3-3v-32c0-1.7,1.3-3,3-3h44c1.7,0,3,1.3,3,3V38.5z"/>
    		<g>
    			<path  d="M50.8,0C37.5,0,24.2,0,10.9,0C6,0,0.7,0.4,0.3,6.8c-0.4,6.8,0,13.8,0,20.7c0,4.7-1.7,13.8,3.2,16.7
    				C7.4,46.4,14.9,45,19.1,45c8.3,0,16.5,0,24.8,0c4.9,0,12,1.1,13.2-5.4c1.3-6.8,0.1-14.7,0.1-21.5c0-5.9,2.2-16.9-6.1-18
    				c-1.9-0.3-2.7,2.6-0.8,2.9c4.4,0.6,3.9,4,3.9,7.1c0,3.5,0,6.9,0,10.4c0,5.6,0.7,11.8,0,17.4c-0.7,5.5-7.4,4.1-11.5,4.1
    				c-7.1,0-14.2,0-21.3,0c-4.6,0-9.8,0.7-14.4,0c-5.6-0.9-3.8-10.4-3.8-14.6c0-6.3-0.4-12.8,0-19.1C3.5,5.6,4,3.5,7.3,3
    				c1.9-0.3,4.1,0,6,0c12.5,0,25,0,37.5,0C52.7,3,52.7,0,50.8,0z"/>
    			<path  d="M52.3,38.1c-0.7,3.6-10.6,1.9-13,1.9c-7.1,0-14.1,0-21.2,0c-2.6,0-11.6,1.6-12.9-1.5
    				c-0.5-1.1,0-3.4,0-4.6c0-3.5,0-6.9,0-10.4c0-3.2,0-6.4,0-9.6c0-2-0.6-5.1,0-7.1C6.3,3.5,13.8,5,16.5,5c7,0,14.1,0,21.1,0
    				c2.7,0,5.4,0,8.1,0c1.3,0,3.7-0.4,4.9,0c2.4,0.9,1.7,3.8,1.7,5.8c0,3.6,0,7.2,0,10.7c0,5.7,0,11.3,0,17c0,1.9,3,1.9,3,0
    				c0-6,0-12,0-18c0-3.7,0-7.4,0-11.1c0-2,0.3-4.2-1.1-5.8C51.7,0.6,44.4,2,41.1,2c-8.2,0-16.4,0-24.7,0C13.2,2,5.9,0.6,3.4,3.6
    				C2,5.3,2.3,7.5,2.3,9.5c0,3.7,0,7.4,0,11.1c0,5.8-0.8,12.2,0,18c0.8,5.7,6.8,4.5,11,4.5c9.1,0,18.3,0,27.4,0
    				c4.5,0,13.3,1.9,14.5-4.1C55.6,37,52.7,36.2,52.3,38.1z"/>
    		</g>
    	</g>
    	<g>
    		<path fill="#424242" d="M50.1,5.7l-19,16.4c-1.3,1.1-3.5,1.1-4.7,0L7.4,5.7C7,5.4,6.4,5.4,6,5.8c-0.4,0.4-0.3,1,0.1,1.4l19,16.4
    			c1,0.9,2.3,1.3,3.7,1.3s2.7-0.4,3.7-1.3l19-16.4c0.4-0.4,0.5-1,0.1-1.4C51.2,5.4,50.6,5.4,50.1,5.7z"/>
    		<g>
    			<path  d="M49.1,4.7c-3.2,2.7-6.3,5.5-9.5,8.2c-2.3,2-8.5,9.7-12.2,8.2c-1.1-0.4-2.3-2-3.2-2.8
    				c-2.2-1.9-4.4-3.8-6.6-5.7c-2.8-2.4-5.8-6.1-9.1-7.9C5.3,2.9,3.3,6,5.4,8.6c3,3.7,7.8,6.7,11.4,9.8c2.7,2.3,5.7,5.9,9,7.4
    				c4.4,2,7.6-1,10.7-3.7c4.7-4.1,9.4-8.1,14.1-12.2c0.9-0.8,2.4-1.7,2.7-3c0.4-2.2-1.7-3.3-3.5-2.7c-1.8,0.6-1,3.5,0.8,2.9
    				c-0.4,0.1,0.3-1-0.7-0.5c-0.5,0.2-0.9,0.8-1.3,1.2c-1.8,1.5-3.6,3.1-5.3,4.6c-3.4,2.9-6.7,6.1-10.2,8.8c-2.1,1.6-4,2.9-6.8,1.2
    				c-0.9-0.6-1.8-1.6-2.6-2.3c-3.7-3.2-7.4-6.4-11.1-9.6c-1.2-1.1-2.5-2.5-3.9-3.3C7.8,6.9,6.1,5.4,6.8,7.2c0.4,1,2.6,2.3,3.4,2.9
    				c1.9,1.6,3.8,3.2,5.6,4.9c4.1,3.5,10.7,12.3,16.6,8C39.1,18.1,45,12.1,51.2,6.8C52.7,5.5,50.5,3.4,49.1,4.7z"/>
    		</g>
    	</g>
    </g>
    <g id="icon0">
    	<g id="Rectangle_42_1_" enable-background="new    ">
        	<g id="Rectangle_42">
        		<g>
        			<rect x="0" y="20" fill-rule="evenodd" clip-rule="evenodd"  width="7" height="13"/>
        		</g>
        	</g>
        </g>
        <g id="Rectangle_42_copy_1_" enable-background="new    ">
        	<g id="Rectangle_42_copy">
        		<g>
        			<rect x="10" y="15" fill-rule="evenodd" clip-rule="evenodd"  width="7" height="18"/>
        		</g>
        	</g>
        </g>
        <g id="Rectangle_42_copy_2_1_" enable-background="new    ">
        	<g id="Rectangle_42_copy_2">
        		<g>
        			<rect x="20" y="10" fill-rule="evenodd" clip-rule="evenodd"  width="7" height="23"/>
        		</g>
        	</g>
        </g>
        <g id="Rectangle_42_copy_3_1_" enable-background="new    ">
        	<g id="Rectangle_42_copy_3">
        		<g>
        			<path  d="M36,6v26h-5V6H36 M37,5h-7v28h7V5L37,5z"/>
        		</g>
        	</g>
        </g>
        <g id="Rectangle_42_copy_4_1_" enable-background="new    ">
        	<g id="Rectangle_42_copy_4">
        		<g>
        			<path  d="M46,1v31h-5V1H46 M47,0h-7v33h7V0L47,0z"/>
        		</g>
        	</g>
        </g>
    </g>
    <g id="sub2">
    	<path d="M344.12,475.493h-7.536a0.946,0.946,0,0,1-.942-0.948v-7.591a0.946,0.946,0,0,1,.942-0.949h7.536a0.946,0.946,0,0,1,.942.949v7.591A0.946,0.946,0,0,1,344.12,475.493Zm-0.942-7.59h-5.652V473.6h5.652V467.9Zm-4.71,13.283h-7.536a0.946,0.946,0,0,1-.942-0.949v-7.59a0.946,0.946,0,0,1,.942-0.949h2.826v1.9h-1.884v5.692h5.652v-1.9h1.884v2.846A0.946,0.946,0,0,1,338.468,481.186Z" transform="translate(-330 -466)"/>
    </g>
    <g id="sub3">
   		<path transform="translate(-132.312 -334.438)" d="M133.984,348a1.183,1.183,0,0,0,1.18-1.186V345.63a4.73,4.73,0,0,1,4.717-4.744h0v0.844a3.82,3.82,0,0,0,.437,2.248,1.381,1.381,0,0,0,2.068,0l2.949-3.105a1.69,1.69,0,0,0,0-2.248l-2.961-3.216a1.381,1.381,0,0,0-2.068,0,3.8,3.8,0,0,0-.431,2.248v0.857a7.1,7.1,0,0,0-7.073,7.116v1.186A1.183,1.183,0,0,0,133.984,348Zm11.874-4.864a1.768,1.768,0,0,0,.359.84,1.381,1.381,0,0,0,2.068,0l2.949-3.105a1.69,1.69,0,0,0,0-2.248l-2.961-3.216a1.381,1.381,0,0,0-2.068,0,1.8,1.8,0,0,0-.366.881l2.339,3.466Z" />
    </g>
    <g id="sub4">
    	<path transform="translate(-132.5 -367.5)" d="M150.819,381a1.185,1.185,0,0,1-1.189-1.18v-1.181a4.739,4.739,0,0,0-4.757-4.721h0v0.84a3.762,3.762,0,0,1-.44,2.237,1.405,1.405,0,0,1-2.086,0l-2.973-3.089a1.665,1.665,0,0,1,0-2.238l2.985-3.2a1.405,1.405,0,0,1,2.086,0,3.744,3.744,0,0,1,.434,2.237v0.853a7.109,7.109,0,0,1,7.132,7.082v1.181A1.185,1.185,0,0,1,150.819,381Zm-11.973-4.841a1.75,1.75,0,0,1-.361.836,1.405,1.405,0,0,1-2.086,0l-2.973-3.089a1.665,1.665,0,0,1,0-2.238l2.985-3.2a1.405,1.405,0,0,1,2.086,0,1.8,1.8,0,0,1,.369.877l-2.359,3.45Z"/>
    </g>
    <g id="sub1">
    	  <path d="M137.349,264h10.2v16.675l-5.1-3.568-5.1,3.568V264Z" transform="translate(-136.844 -263.5)"/>
    </g>
    <g id="toggle1">
		<path  d="M250.85,172.79l0.35,1.65s-3.13,1.21-3.27,1.29L247,174.3A12,12,0,0,0,244,177l1.31,1.06a10.28,10.28,0,0,0-1.45,2.34c-0.11.24-.19,0.48-0.28,0.73l-1.59-.56s-0.59,3.4-.7,4h1.68a10.44,10.44,0,0,0,.6,3.47l-1.59.56a12.09,12.09,0,0,0,2,3.57l1.31-1.06a10.31,10.31,0,0,0,2.65,2.32L247,194.9a12.33,12.33,0,0,0,1.41.74,12.1,12.1,0,0,0,2.38.77l0.35-1.64s3,0.19,3.52.12l0.23,1.67a12.11,12.11,0,0,0,3.9-1.22l-0.77-1.5a10.34,10.34,0,0,0,2.82-2.12l1.23,1.16a23.81,23.81,0,0,0,2.86-5.1l-1.63-.44a10.25,10.25,0,0,0,.35-3.5l1.67-.13a12.09,12.09,0,0,0-1-4l-1.54.68a10.36,10.36,0,0,0-1.93-2.95l1.22-1.15a12,12,0,0,0-3.28-2.46l-0.77,1.5c-0.18-.09-0.35-0.19-0.54-0.27a10.2,10.2,0,0,0-2.82-.79l0.22-1.67C254.38,172.56,250.85,172.79,250.85,172.79Z" transform="translate(-240.77 -172.12)"/><circle class="cls-1" cx="12.57" cy="12.5" r="6.54"/>
    </g>
    <g id="toggle5">
		<path d="M18.8,24.73H2a2,2,0,0,1-2-2V10.88a1,1,0,0,1,1-1v-1a1,1,0,0,1-1-1v-3a1,1,0,0,1,.29-0.7l4-4A1,1,0,0,1,4.95,0H18.8a2,2,0,0,1,2,2V22.76A2,2,0,0,1,18.8,24.73ZM1,10.88V22.76a1,1,0,0,0,1,1H18.8a1,1,0,0,0,1-1V2a1,1,0,0,0-1-1H4.95l-4,4v3H1.48A0.49,0.49,0,0,1,2,8.41v2a0.49,0.49,0,0,1-.49.49H1Z"/><path class="cls-1" d="M11.38,5.94a0.49,0.49,0,0,1-.49-0.49v-3a0.49,0.49,0,1,1,1,0v3A0.49,0.49,0,0,1,11.38,5.94Z"/><path class="cls-1" d="M8.41,5.94a0.49,0.49,0,0,1-.49-0.49v-3a0.49,0.49,0,0,1,1,0v3A0.49,0.49,0,0,1,8.41,5.94Z"/><path class="cls-1" d="M5.44,5.94a0.49,0.49,0,0,1-.49-0.49v-3a0.49,0.49,0,1,1,1,0v3A0.49,0.49,0,0,1,5.44,5.94Z"/><path class="cls-1" d="M14.35,5.94a0.49,0.49,0,0,1-.49-0.49v-3a0.49,0.49,0,0,1,1,0v3A0.49,0.49,0,0,1,14.35,5.94Z"/><path class="cls-1" d="M17.31,5.94a0.49,0.49,0,0,1-.49-0.49v-3a0.49,0.49,0,0,1,1,0v3A0.49,0.49,0,0,1,17.31,5.94Z"/>
    </g>
    <g id="toggle4">
		<path  d="M0.5,10.85V24.37H29.08m-24.49,0H8.66V7H4.58V24.37h0Zm8.16,0h4.08V12.85H12.75V24.37h0Zm8.16,0H25V0.5H20.91V24.37h0Z"/>
	</g>

    <g id="toggle3">
		<path d="M23.9,15.93v6.38a0.53,0.53,0,0,1-.53.53H2.1a1.6,1.6,0,0,1-1.6-1.6V2.1"/>
        <path d="M24.44,9.54h0a1.06,1.06,0,0,1,1.06,1.06v4.26a1.06,1.06,0,0,1-1.06,1.06H17a1.06,1.06,0,0,1-1.06-1.06V11.67A1.06,1.06,0,0,1,17,10.61h6.38a0.53,0.53,0,0,0,.53-0.53V4.22a0.53,0.53,0,0,0-.53-0.53H2.1A1.6,1.6,0,0,1,.5,2.1h0A1.6,1.6,0,0,1,2.1.5H21.78a0.53,0.53,0,0,1,.53.53V3.69"/>
        <circle cx="18.59" cy="13.27" r="1.06"/>
	</g>
    <g id="toggle2">
		<path d="M3.27,0.5l20.3,0.06A2.73,2.73,0,0,1,26.29,3.3l0,12.2a2.73,2.73,0,0,1-2.73,2.72l-11.59,0L5.28,24.54l0-6.38H3.22A2.73,2.73,0,0,1,.5,15.42l0-12.2A2.73,2.73,0,0,1,3.27.5h0Z"/>
	</g>
	<g id="toggle6">
    	<path d="M27.8,0H0.5C0.2,0,0,0.2,0,0.5v16.8c0,0.3,0.2,0.5,0.5,0.5h9.9v4.8h-4c-0.3,0-0.5,0.2-0.5,0.5
    		c0,0.3,0.2,0.5,0.5,0.5h4h7.5h4c0.3,0,0.5-0.2,0.5-0.5c0-0.3-0.2-0.5-0.5-0.5h-4v-4.8h9.9c0.3,0,0.5-0.2,0.5-0.5V0.5
    		C28.4,0.2,28.1,0,27.8,0z M16.9,22.7h-5.4v-4.8h5.4V22.7z M27.3,16.8H1.1V1.1h26.3V16.8z"/>
    </g>
    <g id="pay1">
		<path  d="M73.73,53H6.61C2.41,53,0,51,0,47.36V5.1A4.2,4.2,0,0,1,1.19,2.2C2.55,0.74,4.87,0,8.08,0h66.7a5.7,5.7,0,0,1,3.76,1.47,4.94,4.94,0,0,1,1.38,3.67V46.87a6.87,6.87,0,0,1-1.76,4.52A5.94,5.94,0,0,1,73.73,53ZM74.79,1.46H8.08c-2.75,0-4.76.6-5.82,1.73A2.76,2.76,0,0,0,1.46,5V47.36c0,3.49,2.8,4.23,5.14,4.23H73.73a4.54,4.54,0,0,0,3.38-1.22,5.4,5.4,0,0,0,1.34-3.48V5.14a3.54,3.54,0,0,0-.94-2.62A4.31,4.31,0,0,0,74.79,1.46Z"/><rect class="cls-1" x="0.73" y="13.48" width="78.45" height="1.46"/><path class="cls-1" d="M62.44,44.37a8,8,0,0,1-5.8-2.49,8,8,0,0,1-5.8,2.49,8.1,8.1,0,0,1,0-16.21,8,8,0,0,1,5.8,2.49,8,8,0,0,1,5.8-2.49A8.1,8.1,0,0,1,62.44,44.37Zm-5.8-4.8,0.58,0.74a6.64,6.64,0,1,0,0-8.1L56.63,33l-0.58-.74a6.64,6.64,0,1,0,0,8.1Z"/>
	</g>
    <g id="pay2">
    	<path d="M35.23,83.27H10.88V74c-0.31-1.32-3.52-14.72-3.63-15.3a19.94,19.94,0,0,1,0-3V55.46l0.21-.2a19.94,19.94,0,0,0,5.36-10.84c0.09-.79.13-2.31,0.16-4.07,0.16-8,.4-20.08,5.86-20.08,3.9,0,6.14,2.73,6.14,7.48,0,0.51,0,1.63,0,3.13s0,3.32-.07,5.32c3.47,0,14.15.07,14.66,0.13,0.71,0.09,3.32,2.38,4.87,5.15a9.35,9.35,0,0,1,.65,8.7c-2.87,6.28-9.24,24.36-9.81,26v7.09ZM12.34,81.81H33.77l0-6c0.07-.2,6.88-19.63,9.9-26.24,2.67-5.84-3.51-11.22-4.46-11.8-1,0-8.84-.09-14.4-0.12,0,1.89,0,3.89,0,5.83A56.14,56.14,0,0,0,25,49.43c0.31,1,.48,1.61,2.32,3.12l-0.93,1.13c-2.08-1.71-2.4-2.53-2.79-3.84-0.06-.21-0.18-0.61-0.19-6.34,0-4.58.07-9.43,0.12-12.64,0-1.5,0-2.6,0-3.11,0-2.75-.81-6-4.68-6-4,0-4.28,12.59-4.4,18.65,0,1.87-.07,3.35-0.17,4.21A21.08,21.08,0,0,1,8.68,56.11a17.31,17.31,0,0,0,0,2.33c0.09,0.45,2.42,10.22,3.64,15.33l0,0.17v7.88Z"/><rect class="cls-1" x="24.09" y="42.77" width="7.71" height="1.46"/><path class="cls-1" d="M12.46,44.26c-2.3,0-7.06-.23-9-2.05a2.62,2.62,0,0,1-.87-1.94c0-3.48,3.88-4.54,5.93-4.62H13.9v1.46H8.59c-0.16,0-4.5.21-4.5,3.16a1.18,1.18,0,0,0,.42.89c1.66,1.59,7.13,1.71,9.09,1.63l0.06,1.46C13.5,44.25,13.07,44.26,12.46,44.26Z"/><path class="cls-1" d="M10.37,51.18C7.9,51.18,2.74,51,.82,49.1A2.46,2.46,0,0,1,0,47.28c0-4.25,6-4.5,6.25-4.51h5.65v1.46H6.27s-4.81.21-4.81,3a1,1,0,0,0,.37.77c1.68,1.61,7.61,1.74,9.76,1.65l0.06,1.46C11.47,51.17,11,51.18,10.37,51.18Z"/><path class="cls-1" d="M7.84,56c-1.68,0-5.24-.17-6.62-1.5a2,2,0,0,1-.65-1.46c0-2.54,2.91-3.32,4.45-3.37H8.85v1.46H5s-3,.14-3,1.91a0.53,0.53,0,0,0,.2.4c1,0.94,4.44,1.16,6.41,1.07L8.69,56Z"/><path class="cls-1" d="M36.67,37.12H35.21V1.46H11.9v35H10.44V0.73A0.73,0.73,0,0,1,11.17,0H35.94a0.73,0.73,0,0,1,.73.73V37.12Z"/><rect class="cls-1" x="29.37" y="0.73" width="1.46" height="35.65"/>
	</g>
    <g id="pay3">
		<path  d="M56.4,87H0.73A0.73,0.73,0,0,1,0,86.27V76.78a0.73,0.73,0,0,1,.41-0.66l19.72-9.54V61.72c-4.62-3.53-7.47-10-7.47-16.87,0-.89.18-2.51,0.29-3.4s0.21-1.58.25-1.8c1.81-8.5,7.88-14.43,14.76-14.43,8.43,0,15.3,8.81,15.3,19.63,0,6.58-2.53,12.65-6.79,16.3V67l20.26,9.34a0.73,0.73,0,0,1,.42.66v9.28A0.73,0.73,0,0,1,56.4,87ZM1.46,85.54H55.67V77.46L35.42,68.12A0.73,0.73,0,0,1,35,67.46V60.82a0.73,0.73,0,0,1,.27-0.56c4.09-3.36,6.53-9.11,6.53-15.4,0-10-6.21-18.17-13.84-18.17-6.18,0-11.66,5.46-13.33,13.28,0,0.13-.12.79-0.23,1.67-0.18,1.46-.28,2.63-0.28,3.22,0,6.61,2.75,12.7,7.17,15.91a0.73,0.73,0,0,1,.3.59V67a0.73,0.73,0,0,1-.41.66L1.46,77.24v8.3Z"/><path class="cls-1" d="M40,43c-4.79,0-8.42-3.54-9.9-5.26a10.49,10.49,0,0,1-8.84,4.94c-6.43.2-7.84-1.1-8.12-1.5l0.6-.42,0.56-.47s1.16,1.09,6.92.93a9.11,9.11,0,0,0,8.1-5.08,0.73,0.73,0,0,1,.59-0.44,0.71,0.71,0,0,1,.68.3c0,0.07,5,6.95,11.54,5.27l0.37,1.41A9.91,9.91,0,0,1,40,43Z"/><polygon class="cls-1" points="57.92 51.84 57.92 35.3 49.3 35.3 49.3 33.84 59.38 33.84 59.38 48.31 74.08 33.6 85.01 33.6 85.01 1.46 29.91 1.46 29.91 13.75 28.45 13.75 28.45 0 86.47 0 86.47 35.06 74.69 35.06 57.92 51.84"/><circle class="cls-1" cx="49.48" cy="19.48" r="2.31"/><circle class="cls-1" cx="60.36" cy="19.27" r="2.31"/><circle class="cls-1" cx="71.25" cy="19.48" r="2.31"/>
	</g>

 	<g id="menu1">
 		<path  d="M377.694,277.908H32.227C14.457,277.908,0,263.451,0,245.682V32.228C0,14.458,14.457,0,32.227,0h345.467
    		c17.77,0,32.227,14.457,32.227,32.227v213.454C409.921,263.451,395.464,277.908,377.694,277.908 M32.227,14
    		C22.177,14,14,22.176,14,32.228v213.454c0,10.05,8.177,18.227,18.227,18.227h345.467c10.05,0,18.227-8.177,18.227-18.227V32.228
    		c0-10.051-8.177-18.227-18.227-18.227H32.227z"/>
    	<path d="M204.961,177.613c-1.349,0-2.696-0.39-3.869-1.165L6.409,47.381c-3.223-2.136-4.103-6.48-1.967-9.702
    		c2.136-3.223,6.481-4.103,9.702-1.967l190.817,126.503L395.777,35.712c3.222-2.134,7.565-1.256,9.702,1.967
    		c2.136,3.222,1.256,7.566-1.967,9.702L208.828,176.448C207.656,177.224,206.309,177.613,204.961,177.613"/>
	</g>
	<g id="menu2">
		<path d="M334.835,392.48H28.864C12.948,392.48,0,379.532,0,363.616V141.288c0-15.916,12.948-28.864,28.864-28.864
    		h266.04c3.866,0,7,3.134,7,7c0,3.866-3.134,7-7,7H28.864c-8.196,0-14.864,6.668-14.864,14.864v222.328
    		c0,8.196,6.668,14.864,14.864,14.864h305.971c8.196,0,14.864-6.668,14.864-14.864v-219.75c0-3.866,3.134-7,7-7c3.865,0,7,3.134,7,7
    		v219.75C363.699,379.532,350.751,392.48,334.835,392.48"/>
    	<path d="M181.85,281.811c-1.832,0-3.62-0.72-4.95-2.051c-1.789-1.788-2.473-4.401-1.791-6.837l15.502-55.357
    		c0.324-1.158,0.941-2.213,1.791-3.063L399.563,7.342C404.229,2.676,410.534,0,416.861,0c5.742,0,11.063,2.159,14.983,6.079
    		l18.736,18.737c4.249,4.249,6.396,10.028,6.043,16.273c-0.335,5.947-2.93,11.632-7.306,16.008L242.157,264.258
    		c-0.851,0.851-1.904,1.467-3.063,1.791l-55.357,15.502C183.114,281.726,182.479,281.811,181.85,281.811 M203.598,223.107
    		l-11.652,41.607l41.607-11.652L439.419,47.197c3.789-3.789,4.356-9.389,1.262-12.482l-18.735-18.736
    		c-1.637-1.636-3.667-1.979-5.084-1.979c-2.642,0-5.338,1.181-7.398,3.241L203.598,223.107z"/>
    	<path d="M431.896,71.62c-1.791,0-3.583-0.684-4.95-2.05l-39.854-39.856c-2.734-2.733-2.734-7.166,0-9.899
    		c2.732-2.734,7.166-2.734,9.898,0l39.856,39.855c2.733,2.734,2.733,7.166,0,9.9C435.479,70.936,433.688,71.62,431.896,71.62"/>
	</g>
	<g id="menu3">
		<path d="M256.189,448H27.001C12.112,448,0,435.888,0,421V27.001C0,12.112,12.112,0,27.001,0h229.188
			c14.89,0,27.001,12.112,27.001,27.001V421C283.19,435.888,271.079,448,256.189,448 M27.001,14C19.832,14,14,19.832,14,27.001V421
			c0,7.168,5.832,13,13.001,13h229.188c7.17,0,13.002-5.832,13.002-13V27.001c0-7.169-5.832-13.001-13.002-13.001H27.001z"/>
		<path d="M240.347,368.389H42.633c-3.866,0-7-3.134-7-7V55.35c0-3.867,3.134-7,7-7h197.714c3.866,0,7,3.133,7,7
			v306.039C247.347,365.255,244.213,368.389,240.347,368.389 M49.633,354.389h183.714V62.35H49.633V354.389z"/>
		<path d="M161.726,407.987h-37.893c-3.867,0-7-3.134-7-7s3.133-7,7-7h37.893c3.866,0,7,3.134,7,7
			S165.592,407.987,161.726,407.987"/>
    </g>
	<g id="delete-icon">
		<path  d="M12.77,4.255h-0.853v8.528c0.001,0.47-0.38,0.852-0.851,0.852l0,0H2.549c-0.471,0-0.852-0.381-0.852-0.852
        	V4.255h-1.7V3.402c0-0.47,0.38-0.851,0.85-0.852c0,0,0,0,0.001,0h3.408V0.844c0-0.47,0.381-0.852,0.851-0.853l0,0h3.405
        	c0.47,0,0.853,0.381,0.853,0.852c0,0,0,0.001,0,0.001V2.55h3.406c0.471,0,0.852,0.382,0.852,0.852v0.853H12.77L12.77,4.255z
        	 M7.66,1.697H5.959V2.55H7.66V1.697z M10.214,8.519V4.255H3.401v7.675h6.812V8.519H10.214z"/>
	</g>
	<g id="search">
        <path d="M495,466.2L377.2,348.4c29.2-35.6,46.8-81.2,46.8-130.9C424,103.5,331.5,11,217.5,11C103.4,11,11,103.5,11,217.5   S103.4,424,217.5,424c49.7,0,95.2-17.5,130.8-46.7L466.1,495c8,8,20.9,8,28.9,0C503,487.1,503,474.1,495,466.2z M217.5,382.9   C126.2,382.9,52,308.7,52,217.5S126.2,52,217.5,52C308.7,52,383,126.3,383,217.5S308.7,382.9,217.5,382.9z"/>
    </g>
    <g id="can">
		<path d="M381.7,118.4c-7.4-0.6-13.9,4.9-14.5,12.4l-24.9,309.9c0,0.4,0,0.7,0,1.1c0,6.2-5,11.2-11.2,11.2H147.6
			c-6.2,0-11.2-5-11.2-11.2c0-0.4,0-0.7,0-1.1l-24.9-309.9c-0.6-7.4-7.1-13-14.5-12.4s-13,7.1-12.4,14.5l24.9,309.5
			c0.3,17.5,12.4,32.1,28.6,36.4c1.7,0.8,3.6,1.2,5.6,1.2h4h183.4h4c2,0,3.9-0.4,5.6-1.2c16.3-4.2,28.3-18.9,28.6-36.4L394.1,133
			C394.7,125.5,389.1,119,381.7,118.4z"/>
		<path d="M429.2,69.3H311.1V38.2c0-21-17.1-38.2-38.2-38.2h-65.8c-21,0-38.2,17.1-38.2,38.2v31.2h-118c-7.5,0-13.5,6-13.5,13.5
			s6,13.5,13.5,13.5h378.2c7.5,0,13.5-6,13.5-13.5S436.6,69.3,429.2,69.3z M284.1,69.3h-88V38.2c0-6.2,5-11.2,11.2-11.2h65.8
			c6.2,0,11.2,5,11.2,11.2v31.1H284.1z"/>
	</g>

    <g id="draw">
    	<path d="M439.997,92.307l-35.547,35.547l-92.307-92.307L347.69,0L439.997,92.307z"/>
    	<path d="M347.691,113.524l35.547,35.547L140.18,392.128l-35.547-35.547L347.691,113.524z"/>
    	<path d="M83.421,335.362l-35.547-35.547L290.931,56.757l35.547,35.547L83.421,335.362z"/>
    	<polygon points="0,439.997 113.098,407.471 32.527,326.899 	"/>
    </g>
    <g id="close">
    	<path d="M28.941,31.786L0.613,60.114c-0.787,0.787-0.787,2.062,0,2.849c0.393,0.394,0.909,0.59,1.424,0.59   c0.516,0,1.031-0.196,1.424-0.59l28.541-28.541l28.541,28.541c0.394,0.394,0.909,0.59,1.424,0.59c0.515,0,1.031-0.196,1.424-0.59   c0.787-0.787,0.787-2.062,0-2.849L35.064,31.786L63.41,3.438c0.787-0.787,0.787-2.062,0-2.849c-0.787-0.786-2.062-0.786-2.848,0   L32.003,29.15L3.441,0.59c-0.787-0.786-2.061-0.786-2.848,0c-0.787,0.787-0.787,2.062,0,2.849L28.941,31.786z"/>
    </g>
</svg>