<svg xmlns="http://www.w3.org/2000/svg" width="30.124" height="30.376" viewBox="0 0 15.062 15.188">
  <defs>
    <style>
      .cls-1 {
        fill: #adb8c1;
        fill-rule: evenodd;
      }
    </style>
  </defs>
  <path id="Gallery_copy" data-name="Gallery copy" class="cls-1" d="M344.12,475.493h-7.536a0.946,0.946,0,0,1-.942-0.948v-7.591a0.946,0.946,0,0,1,.942-0.949h7.536a0.946,0.946,0,0,1,.942.949v7.591A0.946,0.946,0,0,1,344.12,475.493Zm-0.942-7.59h-5.652V473.6h5.652V467.9Zm-4.71,13.283h-7.536a0.946,0.946,0,0,1-.942-0.949v-7.59a0.946,0.946,0,0,1,.942-0.949h2.826v1.9h-1.884v5.692h5.652v-1.9h1.884v2.846A0.946,0.946,0,0,1,338.468,481.186Z" transform="translate(-330 -466)"/>
</svg>
