<svg id="Layer_1" data-name="Layer 1" xmlns="http://www.w3.org/2000/svg" viewBox="0 0 20.78 24.73"><defs><style>.cls-1{fill:#231f20;}</style>
</defs><title>Icons</title>
<path class="cls-1" d="M18.8,24.73H2a2,2,0,0,1-2-2V10.88a1,1,0,0,1,1-1v-1a1,1,0,0,1-1-1v-3a1,1,0,0,1,.29-0.7l4-4A1,1,0,0,1,4.95,0H18.8a2,2,0,0,1,2,2V22.76A2,2,0,0,1,18.8,24.73ZM1,10.88V22.76a1,1,0,0,0,1,1H18.8a1,1,0,0,0,1-1V2a1,1,0,0,0-1-1H4.95l-4,4v3H1.48A0.49,0.49,0,0,1,2,8.41v2a0.49,0.49,0,0,1-.49.49H1Z"/>
<path class="cls-1" d="M11.38,5.94a0.49,0.49,0,0,1-.49-0.49v-3a0.49,0.49,0,1,1,1,0v3A0.49,0.49,0,0,1,11.38,5.94Z"/>
<path class="cls-1" d="M8.41,5.94a0.49,0.49,0,0,1-.49-0.49v-3a0.49,0.49,0,0,1,1,0v3A0.49,0.49,0,0,1,8.41,5.94Z"/>
<path class="cls-1" d="M5.44,5.94a0.49,0.49,0,0,1-.49-0.49v-3a0.49,0.49,0,1,1,1,0v3A0.49,0.49,0,0,1,5.44,5.94Z"/>
<path class="cls-1" d="M14.35,5.94a0.49,0.49,0,0,1-.49-0.49v-3a0.49,0.49,0,0,1,1,0v3A0.49,0.49,0,0,1,14.35,5.94Z"/>
<path class="cls-1" d="M17.31,5.94a0.49,0.49,0,0,1-.49-0.49v-3a0.49,0.49,0,0,1,1,0v3A0.49,0.49,0,0,1,17.31,5.94Z"/>
</svg>