<svg id="Layer_1" data-name="Layer 1" xmlns="http://www.w3.org/2000/svg" viewBox="0 0 25.1 24.94"><defs>
<style>.cls-1{fill:none;stroke:#231f20;stroke-linecap:round;stroke-linejoin:round;}</style>
</defs><title>Icons-12</title>
<path class="cls-1" d="M250.85,172.79l0.35,1.65s-3.13,1.21-3.27,1.29L247,174.3A12,12,0,0,0,244,177l1.31,1.06a10.28,10.28,0,0,0-1.45,2.34c-0.11.24-.19,0.48-0.28,0.73l-1.59-.56s-0.59,3.4-.7,4h1.68a10.44,10.44,0,0,0,.6,3.47l-1.59.56a12.09,12.09,0,0,0,2,3.57l1.31-1.06a10.31,10.31,0,0,0,2.65,2.32L247,194.9a12.33,12.33,0,0,0,1.41.74,12.1,12.1,0,0,0,2.38.77l0.35-1.64s3,0.19,3.52.12l0.23,1.67a12.11,12.11,0,0,0,3.9-1.22l-0.77-1.5a10.34,10.34,0,0,0,2.82-2.12l1.23,1.16a23.81,23.81,0,0,0,2.86-5.1l-1.63-.44a10.25,10.25,0,0,0,.35-3.5l1.67-.13a12.09,12.09,0,0,0-1-4l-1.54.68a10.36,10.36,0,0,0-1.93-2.95l1.22-1.15a12,12,0,0,0-3.28-2.46l-0.77,1.5c-0.18-.09-0.35-0.19-0.54-0.27a10.2,10.2,0,0,0-2.82-.79l0.22-1.67C254.38,172.56,250.85,172.79,250.85,172.79Z" transform="translate(-240.77 -172.12)"/><circle class="cls-1" cx="12.57" cy="12.5" r="6.54"/>
</svg>