<svg id="Layer_1" data-name="Layer 1" xmlns="http://www.w3.org/2000/svg" viewBox="0 0 26.69 23.35"><defs><style>.cls-1{fill:none;stroke:#2b2a2a;stroke-miterlimit:10;}.cls-2{fill:#2b2a2a;}</style></defs><title>Icons</title>
<path class="cls-1" d="M23.9,15.93v6.38a0.53,0.53,0,0,1-.53.53H2.1a1.6,1.6,0,0,1-1.6-1.6V2.1"/>
<path class="cls-1" d="M24.44,9.54h0a1.06,1.06,0,0,1,1.06,1.06v4.26a1.06,1.06,0,0,1-1.06,1.06H17a1.06,1.06,0,0,1-1.06-1.06V11.67A1.06,1.06,0,0,1,17,10.61h6.38a0.53,0.53,0,0,0,.53-0.53V4.22a0.53,0.53,0,0,0-.53-0.53H2.1A1.6,1.6,0,0,1,.5,2.1h0A1.6,1.6,0,0,1,2.1.5H21.78a0.53,0.53,0,0,1,.53.53V3.69"/>
<circle class="cls-2" cx="18.59" cy="13.27" r="1.06"/>
</svg>