<?xml version="1.0" encoding="utf-8"?>
<!-- Generator: Adobe Illustrator 19.2.1, SVG Export Plug-In . SVG Version: 6.00 Build 0)  -->
<svg version="1.1" id="Layer_1" xmlns="http://www.w3.org/2000/svg" xmlns:xlink="http://www.w3.org/1999/xlink" x="0px" y="0px"
	 viewBox="0 0 28.4 23.7" style="enable-background:new 0 0 28.4 23.7;" xml:space="preserve">
<style type="text/css">
	.st0{fill:none;stroke:#E61127;stroke-width:1.46;stroke-linecap:round;stroke-miterlimit:10;}
	.st1{fill:#E61127;}
	.st2{fill:none;stroke:#E61127;stroke-width:1.46;stroke-miterlimit:10;}
	.st3{fill:none;stroke:#231F20;stroke-linecap:round;stroke-linejoin:round;stroke-miterlimit:22.9256;}
	.st4{fill:none;stroke:#2B2A2A;stroke-miterlimit:10;}
	.st5{fill:#2B2A2A;}
	.st6{fill:#231F20;}
	.st7{fill:#221F1F;}
</style>
<g>
	<path class="st7" d="M27.8,0H0.5C0.2,0,0,0.2,0,0.5v16.8c0,0.3,0.2,0.5,0.5,0.5h9.9v4.8h-4c-0.3,0-0.5,0.2-0.5,0.5
		c0,0.3,0.2,0.5,0.5,0.5h4h7.5h4c0.3,0,0.5-0.2,0.5-0.5c0-0.3-0.2-0.5-0.5-0.5h-4v-4.8h9.9c0.3,0,0.5-0.2,0.5-0.5V0.5
		C28.4,0.2,28.1,0,27.8,0z M16.9,22.7h-5.4v-4.8h5.4V22.7z M27.3,16.8H1.1V1.1h26.3V16.8z"/>
</g>
</svg>
